<?xml version="1.0" standalone="no"?>
<!DOCTYPE svg PUBLIC "-//W3C//DTD SVG 20010904//EN"
 "http://www.w3.org/TR/2001/REC-SVG-20010904/DTD/svg10.dtd">
<svg version="1.0" xmlns="http://www.w3.org/2000/svg"
 width="700.000000pt" height="700.000000pt" viewBox="0 0 700.000000 700.000000"
 preserveAspectRatio="xMidYMid meet">
<metadata>
Created by potrace 1.14, written by Peter Selinger 2001-2017
</metadata>
<g transform="translate(0.000000,700.000000) scale(0.100000,-0.100000)"
fill="#000000" stroke="none">
<path d="M3320 6864 c-19 -2 -78 -9 -130 -15 -641 -72 -1266 -411 -1692 -919
-286 -340 -500 -800 -572 -1230 -47 -280 -48 -621 -2 -880 79 -450 263 -862
542 -1210 90 -111 287 -309 394 -394 488 -387 1033 -579 1645 -579 272 0 461
25 710 95 603 168 1137 562 1487 1098 81 123 211 383 263 524 47 126 108 369
130 511 23 146 31 488 15 642 -105 1045 -817 1921 -1824 2242 -240 77 -454
111 -731 116 -110 2 -216 1 -235 -1z m510 -140 c301 -39 585 -131 865 -283
1079 -583 1573 -1876 1158 -3031 -286 -798 -973 -1405 -1803 -1594 -188 -42
-281 -51 -545 -51 -279 0 -369 9 -585 62 -895 216 -1611 925 -1834 1818 -114
456 -97 937 49 1380 212 645 661 1160 1277 1465 436 216 925 297 1418 234z"/>
<path d="M3865 6518 c-11 -6 -26 -18 -32 -26 -17 -21 -16 -87 1 -101 12 -10
12 -19 -1 -59 -85 -279 -66 -450 83 -773 71 -155 100 -247 114 -363 32 -267
-70 -630 -230 -821 -28 -33 -74 -90 -103 -128 l-52 -68 -8 33 c-4 18 -19 72
-34 120 l-26 87 52 58 c59 66 123 188 148 283 24 91 24 297 0 410 -22 103 -81
260 -104 278 -25 18 -77 15 -96 -6 -23 -25 -21 -58 7 -134 101 -268 91 -512
-29 -692 -38 -57 -39 -58 -49 -35 -5 13 -35 69 -67 124 -93 164 -111 251 -85
403 25 144 70 274 156 447 107 215 132 304 133 460 0 129 -14 212 -59 344 -51
148 -80 180 -140 152 -49 -22 -50 -48 -6 -177 54 -158 65 -222 60 -346 -5
-123 -36 -222 -104 -341 -100 -173 -182 -430 -191 -598 -8 -136 12 -226 73
-340 85 -161 152 -305 178 -384 29 -85 56 -225 56 -284 0 -33 -5 -27 -66 79
-81 139 -143 232 -218 325 -71 88 -119 186 -153 312 -24 89 -27 114 -27 283 0
168 3 194 26 281 27 98 66 188 137 314 76 133 112 337 92 526 -14 135 -53 288
-77 306 -26 19 -78 16 -97 -5 -22 -24 -21 -53 5 -159 18 -71 22 -117 23 -243
0 -183 -21 -276 -87 -386 -65 -108 -106 -203 -132 -305 -75 -296 -52 -583 69
-846 l34 -73 -27 14 c-43 22 -127 117 -157 177 -42 83 -77 99 -129 58 -33 -26
-33 -57 0 -123 80 -160 229 -277 390 -307 32 -7 64 -13 69 -14 13 -4 124 -183
180 -291 100 -194 106 -269 38 -419 -48 -105 -89 -232 -99 -304 l-7 -51 -49
73 c-64 93 -110 150 -169 212 l-48 50 12 52 c15 63 62 115 184 205 45 33 85
69 89 80 9 30 -14 76 -45 86 -35 12 -68 -1 -146 -61 l-60 -45 -11 68 c-7 38
-21 97 -33 132 -46 137 -93 182 -149 141 -37 -27 -39 -62 -8 -136 49 -117 70
-283 50 -385 l-6 -30 -58 37 c-32 21 -72 44 -89 51 -17 7 -31 20 -31 29 0 9
-7 97 -15 196 -8 99 -19 316 -25 481 -6 166 -15 323 -18 350 -7 45 -5 53 24
94 45 64 88 154 116 240 20 65 23 95 23 230 -1 143 -3 161 -28 235 -16 44 -32
84 -37 89 -6 6 16 37 54 77 105 111 156 244 156 407 0 98 -22 223 -45 259 -30
45 -104 39 -126 -10 -8 -18 -7 -37 6 -78 39 -131 28 -274 -30 -388 -29 -58
-83 -123 -95 -116 -14 9 -39 96 -50 173 -7 53 -7 107 2 190 l11 115 -27 24
c-33 28 -56 29 -89 3 -21 -17 -27 -34 -37 -107 -15 -105 -8 -252 15 -346 10
-37 36 -102 58 -145 22 -42 53 -102 69 -132 78 -150 72 -385 -14 -553 l-19
-39 -55 61 c-40 44 -76 71 -132 99 l-77 38 17 75 c60 253 42 520 -52 780 -17
47 -40 96 -51 108 -40 43 -119 14 -119 -44 0 -14 11 -53 26 -88 53 -131 76
-242 81 -404 5 -119 2 -172 -12 -250 l-18 -98 -39 45 c-80 90 -140 230 -173
402 -8 45 -23 90 -32 100 -35 39 -123 8 -123 -44 0 -78 67 -304 121 -408 78
-151 172 -238 346 -321 112 -54 151 -91 184 -179 20 -53 43 -215 37 -268 l-3
-32 -65 37 c-144 84 -302 274 -361 436 -12 34 -31 72 -42 85 -26 28 -70 29
-98 1 -33 -33 -21 -91 44 -222 94 -187 215 -319 396 -431 41 -25 89 -51 108
-57 l33 -11 0 -84 c0 -46 7 -183 16 -305 8 -122 13 -223 11 -225 -2 -2 -28 1
-58 8 l-54 11 -17 103 c-28 172 -90 329 -184 469 -59 88 -100 136 -131 153
-33 18 -77 0 -93 -38 -14 -34 -7 -50 63 -139 87 -111 174 -298 191 -412 l7
-44 -52 55 c-108 116 -227 285 -293 417 -123 247 -173 497 -164 822 5 160 4
175 -13 192 -26 26 -81 25 -104 -1 -26 -29 -39 -224 -26 -400 18 -246 73 -462
166 -655 47 -98 166 -283 237 -367 22 -27 35 -48 30 -48 -19 0 -136 93 -202
160 -223 229 -379 584 -420 952 -5 48 -14 97 -20 108 -22 41 -102 38 -122 -6
-24 -52 24 -333 92 -536 71 -214 191 -427 321 -572 l53 -59 -50 5 c-28 3 -82
19 -119 36 -138 65 -250 222 -290 404 -19 85 -39 111 -87 111 -35 0 -68 -32
-68 -68 0 -50 43 -186 86 -274 39 -79 62 -110 133 -181 97 -97 174 -141 288
-165 81 -17 132 -19 203 -5 50 10 54 9 120 -31 94 -56 182 -83 362 -114 84
-15 187 -38 228 -52 80 -26 190 -81 190 -94 0 -17 -118 -31 -215 -27 -75 4
-119 12 -175 32 -112 41 -127 42 -156 15 -26 -25 -31 -65 -11 -92 16 -22 106
-61 187 -80 151 -37 289 -31 440 20 l75 25 57 -64 c51 -56 168 -209 168 -219
0 -9 -442 -8 -512 2 -126 16 -226 47 -343 104 -188 91 -337 230 -450 417 -49
81 -52 83 -92 86 -33 2 -44 -1 -57 -20 -25 -36 -19 -69 28 -146 91 -147 227
-294 347 -376 61 -42 71 -40 -81 -16 -362 58 -525 196 -634 534 -27 84 -37
103 -60 114 -35 18 -78 2 -95 -35 -15 -34 15 -145 75 -272 104 -222 257 -366
458 -430 225 -72 619 -111 1132 -111 297 0 343 -7 390 -63 48 -57 67 -114 72
-219 7 -148 -21 -314 -95 -550 -30 -99 -34 -122 -25 -143 28 -62 108 -54 135
14 9 20 29 84 46 142 91 313 110 533 60 694 -24 76 -25 221 -3 336 20 109 64
241 78 236 6 -2 28 -37 49 -78 65 -128 86 -321 46 -435 -49 -141 -54 -308 -15
-505 45 -230 131 -449 177 -449 34 0 33 27 -4 103 -103 212 -159 535 -127 725
14 84 46 134 125 195 104 78 236 94 459 56 320 -54 665 -37 923 47 236 77 420
248 560 521 27 51 46 76 66 84 50 21 63 86 26 133 -16 20 -29 26 -60 26 -74 0
-113 -73 -73 -135 16 -24 14 -28 -36 -119 -144 -260 -322 -406 -574 -471 -118
-30 -299 -55 -402 -55 l-75 0 118 60 c163 82 284 173 415 309 62 64 114 116
117 116 84 6 118 104 54 155 -55 43 -136 6 -137 -61 0 -19 4 -42 8 -51 10 -23
-156 -195 -274 -284 -101 -77 -281 -170 -403 -210 l-88 -28 -142 24 c-224 38
-363 28 -466 -31 l-33 -20 31 42 c120 163 335 366 376 354 11 -3 63 -15 115
-27 105 -22 224 -20 334 6 50 12 63 12 91 0 94 -39 167 83 88 146 -49 38 -112
18 -139 -45 -12 -29 -19 -33 -75 -44 -79 -16 -220 -16 -299 0 -75 15 -74 16
72 90 140 71 275 122 429 164 152 41 196 59 273 110 l55 36 52 -15 c273 -82
548 133 629 491 6 23 23 54 40 71 42 42 42 90 -1 126 -39 33 -69 33 -108 0
-40 -33 -43 -85 -7 -123 23 -25 23 -28 11 -76 -52 -197 -154 -339 -293 -407
-58 -29 -76 -33 -147 -33 -126 0 -127 1 -51 95 114 140 200 294 283 509 39
102 120 364 138 449 3 17 11 32 16 32 6 0 21 11 34 25 54 53 16 145 -60 145
-72 0 -113 -86 -65 -138 l20 -22 -25 -102 c-71 -279 -195 -580 -312 -757 -68
-102 -187 -223 -264 -269 -57 -33 -164 -75 -180 -70 -5 2 22 46 59 98 102 141
233 351 289 465 126 249 178 514 153 774 l-11 113 27 31 c70 83 -50 185 -127
108 -16 -16 -29 -39 -29 -51 0 -31 27 -78 49 -85 23 -7 31 -64 31 -240 0 -307
-76 -531 -297 -878 -91 -141 -253 -366 -265 -367 -11 0 -22 81 -20 152 1 66
27 159 56 203 9 13 29 26 46 30 62 14 89 88 50 138 -60 76 -181 10 -149 -82 8
-23 6 -37 -9 -68 -52 -104 -65 -199 -50 -367 3 -28 0 -30 -104 -71 -60 -24
-108 -42 -108 -40 0 2 11 45 25 97 52 198 56 376 15 562 -11 50 -20 95 -20
100 0 6 30 22 67 36 195 73 384 251 481 452 20 43 43 78 50 78 7 0 24 11 37
25 54 53 16 145 -60 145 -69 0 -108 -75 -70 -134 14 -21 14 -27 -5 -70 -56
-132 -183 -280 -311 -362 -65 -42 -174 -94 -199 -94 -6 0 -10 34 -10 84 0 150
66 309 179 428 53 57 80 76 176 123 93 45 122 65 169 115 32 35 70 92 90 133
34 70 76 213 76 257 0 12 16 37 36 56 33 30 36 38 31 71 -8 47 -38 73 -86 73
-75 0 -108 -78 -61 -141 22 -31 22 -32 7 -110 -24 -117 -71 -221 -129 -284
-56 -62 -115 -102 -129 -88 -24 24 -51 173 -56 308 -5 152 12 269 57 388 18
49 26 59 51 64 55 11 86 82 59 132 -13 25 -64 45 -95 37 -53 -13 -81 -77 -55
-126 7 -14 5 -31 -10 -66 -57 -133 -87 -337 -71 -491 9 -85 36 -215 56 -264 4
-11 -10 -25 -52 -52 -66 -40 -147 -122 -191 -191 l-30 -47 -30 38 c-81 103
-117 224 -109 368 6 123 34 207 105 323 55 90 74 138 97 247 16 76 19 215 6
281 -6 33 -4 45 11 64 55 68 -20 164 -103 130 -35 -15 -49 -37 -49 -78 0 -32
34 -82 56 -82 21 0 29 -44 28 -165 -1 -119 -17 -202 -60 -295 l-25 -55 -64 66
c-115 121 -155 247 -134 424 9 85 11 90 49 125 43 40 49 64 25 109 -16 32 -33
41 -79 41 -65 0 -105 -92 -61 -139 14 -17 15 -29 4 -125 -24 -203 21 -343 152
-479 l70 -72 -16 -28 c-9 -15 -28 -60 -42 -100 -34 -97 -43 -280 -18 -377 20
-78 74 -183 122 -239 l35 -41 -21 -63 c-48 -149 -49 -223 -5 -418 49 -218 50
-389 4 -569 -41 -159 -53 -181 -119 -217 l-59 -33 -30 73 c-40 96 -56 202 -43
292 15 100 39 165 61 165 24 0 70 56 70 85 0 13 -12 37 -26 54 -64 76 -184 -2
-139 -91 14 -28 13 -36 -4 -92 -10 -34 -21 -86 -25 -117 l-7 -56 -46 24 c-26
12 -57 23 -69 23 -13 0 -34 11 -48 25 -67 66 -172 -8 -136 -96 25 -58 93 -68
142 -19 28 28 33 30 64 20 50 -17 99 -78 114 -141 7 -30 26 -83 41 -118 16
-35 28 -65 27 -66 -61 -39 -173 -134 -240 -202 -88 -90 -108 -112 -171 -196
-37 -48 -37 -48 -37 -19 0 102 -52 259 -115 348 l-32 44 33 95 c44 126 64 237
64 355 l0 97 48 74 c27 41 73 103 104 138 l55 65 60 -3 c102 -4 205 48 260
130 15 23 34 39 45 39 32 0 68 45 68 85 0 78 -93 115 -146 58 -26 -28 -29 -71
-10 -114 9 -22 -44 -83 -94 -109 -20 -10 -60 -22 -88 -26 l-50 -6 48 93 c87
169 136 349 147 540 10 198 -16 317 -125 554 -57 125 -103 253 -117 324 -16
77 -7 219 21 331 24 97 30 111 51 116 32 8 63 51 63 86 0 19 -10 40 -29 59
-31 30 -62 36 -96 17z m73 -69 c4 -31 -20 -53 -47 -44 -45 14 -30 79 17 73 21
-2 28 -9 30 -29z m246 -22 c26 -19 18 -61 -12 -65 -44 -7 -67 32 -36 62 19 19
25 20 48 3z m295 -95 c12 -22 -11 -62 -34 -62 -8 0 -21 10 -29 22 -20 28 -4
58 29 58 13 0 29 -8 34 -18z m361 -221 c23 -45 -30 -81 -62 -41 -13 17 -15 26
-8 41 14 25 56 25 70 0z m270 -295 c19 -23 8 -61 -18 -64 -45 -7 -72 46 -34
67 24 14 38 13 52 -3z m188 -428 c32 -32 -8 -80 -48 -58 -21 11 -25 27 -14 54
7 19 45 21 62 4z m-264 -254 c31 -30 8 -69 -36 -62 -26 3 -37 41 -18 64 16 18
35 18 54 -2z m640 0 c31 -30 8 -69 -36 -62 -26 3 -37 41 -18 64 16 18 35 18
54 -2z m-1427 -531 c9 -24 -33 -56 -58 -43 -24 13 -25 56 -2 69 20 11 51 -2
60 -26z m1563 -72 c18 -36 -11 -68 -50 -56 -42 13 -29 75 15 75 14 0 29 -8 35
-19z m-1020 -236 c26 -32 -13 -81 -47 -59 -35 22 -23 74 17 74 10 0 23 -7 30
-15z m-585 -100 c0 -26 -4 -30 -31 -33 -34 -3 -49 16 -38 50 4 15 13 18 37 16
28 -3 32 -7 32 -33z m-335 -270 c26 -32 -16 -74 -54 -53 -16 9 -22 49 -9 61
12 12 50 7 63 -8z m1904 -111 c19 -19 20 -25 3 -48 -19 -26 -61 -18 -65 12 -7
44 32 67 62 36z m-506 -126 c32 -32 -18 -87 -53 -58 -28 23 -12 70 25 70 9 0
21 -5 28 -12z m-498 -143 c26 -32 -13 -81 -47 -59 -35 22 -23 74 17 74 10 0
23 -7 30 -15z"/>
<path d="M1444 1520 c-52 -11 -113 -36 -136 -57 -25 -23 -24 -87 2 -113 24
-24 36 -25 86 -4 27 11 59 15 107 12 110 -6 107 4 107 -322 0 -163 -4 -286
-11 -310 -16 -58 -49 -86 -102 -86 -31 0 -49 -6 -61 -19 -26 -28 -23 -87 5
-117 20 -21 31 -24 99 -24 68 0 81 3 121 30 57 38 96 101 114 187 19 89 22
708 3 748 -27 60 -206 100 -334 75z"/>
<path d="M5053 1436 c-23 -20 -28 -32 -28 -69 0 -53 22 -82 73 -97 100 -27
175 89 103 161 -39 39 -106 41 -148 5z"/>
<path d="M5480 1235 l0 -75 -55 0 -55 0 0 -70 0 -70 55 0 55 0 0 -192 c0 -165
3 -199 19 -233 46 -103 169 -148 298 -110 70 21 75 30 50 93 -17 46 -23 53
-41 47 -65 -20 -102 -17 -132 8 l-29 25 -3 181 -3 181 90 0 91 0 0 70 0 70
-90 0 -90 0 0 75 0 75 -80 0 -80 0 0 -75z"/>
<path d="M800 1154 c-91 -36 -218 -85 -283 -111 l-118 -46 3 -69 3 -70 290
-113 290 -112 3 65 c2 36 -1 68 -5 72 -4 4 -97 40 -205 80 -109 40 -198 76
-198 79 0 3 91 40 203 81 l202 75 3 68 c2 50 0 67 -10 66 -7 0 -87 -29 -178
-65z"/>
<path d="M6020 1152 l0 -67 210 -79 c116 -43 209 -80 208 -81 -2 -1 -96 -37
-210 -80 l-208 -78 0 -68 c0 -38 3 -69 8 -68 4 0 135 51 292 112 l285 112 3
71 c2 51 -1 73 -10 77 -224 87 -566 217 -571 217 -4 0 -7 -30 -7 -68z"/>
<path d="M2168 1155 c-52 -13 -108 -37 -147 -63 -11 -8 -7 -21 19 -68 l33 -59
57 28 c100 50 229 47 279 -7 12 -13 25 -42 28 -65 l6 -41 -134 0 c-74 0 -150
-5 -170 -10 -92 -26 -149 -101 -149 -195 0 -117 103 -199 250 -200 85 0 137
15 180 52 l30 25 0 -37 0 -36 78 3 77 3 0 230 c0 259 -7 300 -61 363 -49 57
-119 84 -229 88 -57 2 -111 -2 -147 -11z m272 -428 c0 -52 -19 -81 -70 -107
-113 -57 -258 12 -209 99 23 41 55 51 172 51 l107 0 0 -43z"/>
<path d="M3137 1156 c-26 -7 -65 -27 -87 -45 l-40 -32 0 41 0 40 -80 0 -80 0
0 -340 0 -340 85 0 85 0 0 198 c0 170 3 203 19 238 27 60 72 87 148 92 l63 4
0 79 0 79 -32 -1 c-18 0 -54 -6 -81 -13z"/>
<path d="M3627 1160 c-104 -27 -188 -96 -233 -194 -22 -49 -27 -73 -26 -142 0
-71 4 -93 29 -146 40 -85 71 -119 145 -159 62 -33 65 -34 183 -34 118 0 121 1
183 34 116 63 176 163 176 296 1 103 -22 169 -80 234 -67 74 -150 112 -256
117 -46 2 -100 -1 -121 -6z m207 -160 c22 -15 47 -46 63 -78 22 -45 25 -62 21
-117 -10 -118 -80 -185 -194 -185 -104 0 -178 69 -191 177 -10 91 38 186 112
220 47 21 145 12 189 -17z"/>
<path d="M4160 1153 c0 -5 64 -158 143 -341 l142 -333 84 3 84 3 143 335 c79
184 144 336 144 337 0 2 -35 3 -78 3 l-78 0 -24 -57 c-13 -32 -60 -142 -105
-246 l-82 -187 -103 245 -103 245 -83 0 c-46 0 -84 -3 -84 -7z"/>
<path d="M5040 820 l0 -341 83 3 82 3 3 338 2 337 -85 0 -85 0 0 -340z"/>
<path d="M1171 694 c-32 -41 -27 -87 12 -131 43 -47 88 -50 124 -9 36 43 31
89 -14 131 -48 44 -92 47 -122 9z"/>
<path d="M1494 364 c-21 -8 -40 -14 -41 -14 -1 0 -9 -13 -18 -30 -25 -49 -19
-88 19 -126 29 -29 41 -34 80 -34 36 0 52 6 78 29 28 25 33 36 33 75 0 79 -72
127 -151 100z"/>
</g>
</svg>
