<svg width="18" height="15" viewBox="0 0 18 15" fill="none" xmlns="http://www.w3.org/2000/svg">
<path d="M5.70697e-09 4.27L8.71691 8.8875C8.80435 8.93381 8.90145 8.95798 9 8.95798C9.09855 8.95798 9.19565 8.93381 9.28309 8.8875L18 4.27083V12.2917C18 12.9834 17.7402 13.649 17.2737 14.1519C16.8073 14.6547 16.1696 14.9567 15.4915 14.9958L15.3409 15H2.65909C1.97989 15 1.32641 14.7354 0.83272 14.2603C0.339028 13.7852 0.0425444 13.1357 0.00409101 12.445L5.70697e-09 12.2917V4.27ZM2.65909 5.81266e-09H15.3409C16.0201 -4.52889e-05 16.6736 0.264628 17.1673 0.739726C17.661 1.21482 17.9575 1.86433 17.9959 2.555L18 2.70833V2.86167L9 7.62833L5.70697e-09 2.86167V2.70833C-4.44655e-05 2.01655 0.259817 1.35098 0.726277 0.848141C1.19274 0.345306 1.83043 0.0433322 2.50855 0.00416677L2.65909 5.81266e-09H15.3409H2.65909Z" fill="#E8DA93"/>
</svg>
