<svg width="50" height="60" viewBox="0 0 50 60" fill="none" xmlns="http://www.w3.org/2000/svg">
<path d="M1.21147 19.9241C1.26717 19.9367 1.33678 19.9367 1.39248 19.9367C1.90766 19.9367 2.33929 19.6085 2.42283 19.1539C2.4646 18.9014 2.40891 18.6489 2.24182 18.4468C2.08866 18.2448 1.83804 18.1059 1.57349 18.0681C1.00261 17.967 0.459591 18.3206 0.362125 18.8256V18.8383C0.264659 19.3433 0.654523 19.8357 1.21147 19.9241Z" fill="#E8DA93"/>
<path d="M25.0067 39.7226C35.3799 39.7226 43.8176 32.0711 43.8176 22.6645C43.8176 13.258 35.3799 5.60645 25.0067 5.60645C14.6336 5.60645 6.1958 13.258 6.1958 22.6645C6.20972 32.0711 14.6475 39.7226 25.0067 39.7226ZM25.0067 7.51301C34.2242 7.51301 41.7291 14.3186 41.7291 22.6772C41.7291 31.0357 34.2242 37.8413 25.0067 37.8413C15.7892 37.8413 8.28436 31.0357 8.28436 22.6772C8.29828 14.3059 15.7892 7.51301 25.0067 7.51301Z" fill="#E8DA93"/>
<path d="M21.1082 27.9545C20.5374 27.9545 20.064 28.3838 20.064 28.9015C20.064 29.4191 20.5374 29.8484 21.1082 29.8484H28.9194C29.4903 29.8484 29.9637 29.4191 29.9637 28.9015C29.9637 28.3838 29.4903 27.9545 28.9194 27.9545H26.0512V13.7121C26.0512 13.3459 25.8145 13.005 25.4385 12.8535C25.0626 12.702 24.6309 12.7525 24.3246 12.9924L20.6905 15.8459C20.2589 16.1868 20.2032 16.7803 20.5791 17.1843C20.9551 17.5883 21.6234 17.6262 22.0551 17.2853L23.9626 15.7954V27.9671H21.1082V27.9545Z" fill="#E8DA93"/>
<path d="M40.1559 40.6692C46.1292 36.5152 50 30 50 22.6768C50 10.1768 38.7914 0 25.007 0C19.4932 0 14.2579 1.60354 9.88583 4.62121C5.65302 7.53788 2.49234 11.6793 1.00251 16.2879C0.849345 16.7803 1.15567 17.3106 1.71261 17.4621C2.25564 17.601 2.85436 17.298 3.00752 16.8182C5.84795 8.0303 14.8844 1.89394 25.007 1.89394C37.6079 1.91919 47.8975 11.2374 47.9114 22.6768C47.8975 34.1162 37.6079 43.4343 25.007 43.4596C12.3921 43.4343 2.10248 34.1162 2.08855 22.6768C2.08855 22.3106 2.10248 21.9318 2.1164 21.5657C2.13033 21.3131 2.03286 21.0732 1.85185 20.8838C1.65692 20.6944 1.40629 20.5808 1.12782 20.5682C0.556947 20.5303 0.0556941 20.947 0.0278467 21.4646C-6.89869e-07 21.8939 0 22.298 0 22.6768C0 30.0126 3.87079 36.5278 9.84405 40.6692L2.00501 52.5C1.78223 52.8409 1.81008 53.2702 2.08855 53.5859C2.36703 53.9015 2.82651 54.0152 3.24422 53.8889L11.5984 51.2753L12.9769 59.1919C13.0465 59.5833 13.3807 59.899 13.8123 59.9748C13.8819 59.9874 13.9515 59.9874 14.0072 59.9874C14.3693 59.9874 14.7173 59.8106 14.8984 59.5328L24.2969 45.3409C24.5336 45.3409 24.7563 45.3788 24.993 45.3788C25.2158 45.3788 25.4386 45.3535 25.6753 45.3535L35.0738 59.5455C35.2687 59.8359 35.6029 60 35.9649 60C36.0345 60 36.1041 60 36.1598 59.9874C36.5915 59.9116 36.9256 59.596 36.9953 59.2045L38.3737 51.2879L46.7279 53.9015C47.1456 54.0278 47.6051 53.9141 47.8836 53.5985C48.1621 53.2828 48.1899 52.8535 47.9671 52.5126L40.1559 40.6692ZM14.606 56.3005L13.4781 49.8485C13.4364 49.5707 13.2554 49.3308 12.9908 49.1793C12.7263 49.0404 12.406 49.0025 12.1136 49.0909L5.291 51.2247L11.5706 41.7424C14.6477 43.5354 18.1844 44.7222 21.9855 45.1515L14.606 56.3005ZM37.9003 49.0909C37.6079 49.0025 37.2877 49.0278 37.0231 49.1793C36.7586 49.3182 36.5776 49.5707 36.5358 49.8485L35.408 56.3005L28.0284 45.1641C31.8296 44.7475 35.3662 43.548 38.4433 41.7551L44.7229 51.2247L37.9003 49.0909Z" fill="#E8DA93"/>
</svg>
