<svg width="40" height="35" viewBox="0 0 40 35" fill="none" xmlns="http://www.w3.org/2000/svg">
<path d="M23.5454 27.5368C23.8942 27.5368 24.177 27.2335 24.177 26.8592C24.177 26.485 23.8942 26.1816 23.5454 26.1816C23.1966 26.1816 22.9138 26.485 22.9138 26.8592C22.9138 27.2335 23.1966 27.5368 23.5454 27.5368Z" fill="#E8DA93"/>
<path d="M39.3684 0H23.9158C23.5705 0 23.2842 0.307176 23.2842 0.677594V8.14017H15.3179V5.41172C15.3179 5.0413 15.0316 4.73413 14.6863 4.73413H0.631579C0.286316 4.73413 0 5.0413 0 5.41172V15.0245C0 15.3949 0.286316 15.7021 0.631579 15.7021H5.42316V30.7266C5.42316 30.9073 5.49053 31.079 5.60842 31.2055C5.72632 31.332 5.88632 31.4042 6.05474 31.4042H15.4526V33.6448H12.8253C12.48 33.6448 12.1937 33.952 12.1937 34.3224C12.1937 34.6928 12.48 35 12.8253 35H27.1747C27.52 35 27.8063 34.6928 27.8063 34.3224C27.8063 33.952 27.52 33.6448 27.1747 33.6448H24.5474V31.3952H33.9453C34.1137 31.3952 34.2737 31.332 34.3916 31.1964C34.5095 31.07 34.5768 30.8983 34.5768 30.7176V11.9166H39.3684C39.7137 11.9166 40 11.6094 40 11.239V0.677594C40 0.298141 39.7137 0 39.3684 0ZM1.26316 6.08931H14.0547V8.80873V8.81776V8.82679V14.3469H11.3768C11.0316 14.3469 10.7453 14.6541 10.7453 15.0245V16.8224L8.65684 14.5547C8.53895 14.4282 8.37895 14.356 8.21053 14.356H1.26316V6.08931ZM23.2842 33.6358H16.7074V31.3952H23.2842V33.6358ZM33.3137 26.1822H25.2295C24.8842 26.1822 24.5979 26.4894 24.5979 26.8598C24.5979 27.2393 24.8842 27.5374 25.2295 27.5374H33.3137V30.04H6.68632V29.5341V27.5374H21.8611C22.2147 27.5374 22.4926 27.2393 22.4926 26.8598C22.4926 26.4894 22.2147 26.1822 21.8611 26.1822H6.68632V15.7021H7.94947L10.9305 18.9455C11.0484 19.0811 11.2168 19.1443 11.3768 19.1443C11.4611 19.1443 11.5368 19.1262 11.6211 19.0901C11.8568 18.9817 12.0084 18.7377 12.0084 18.4667V15.7021H14.6863C15.0316 15.7021 15.3179 15.3949 15.3179 15.0245V9.49535H23.2842V11.239C23.2842 11.6094 23.5705 11.9166 23.9158 11.9166H26.9137V15.0245C26.9137 15.2956 27.0653 15.5485 27.3011 15.6479C27.3768 15.684 27.4611 15.7021 27.5453 15.7021C27.7137 15.7021 27.8737 15.6298 27.9916 15.5034L31.2926 11.9166H33.3053V26.1822H33.3137ZM38.7368 10.5614H33.9621C33.9537 10.5614 33.9537 10.5614 33.9453 10.5614C33.9368 10.5614 33.9368 10.5614 33.9284 10.5614H31.0316C30.8632 10.5614 30.7032 10.6337 30.5853 10.7602L28.1853 13.3712V11.239C28.1853 10.8686 27.8989 10.5614 27.5537 10.5614H24.5558V1.35519H38.7453V10.5614H38.7368Z" fill="#E8DA93"/>
</svg>
