<svg width="18" height="18" viewBox="0 0 18 18" fill="none" xmlns="http://www.w3.org/2000/svg">
<path fill-rule="evenodd" clip-rule="evenodd" d="M2.12109 0.573968C2.31793 0.377409 2.55429 0.22493 2.81451 0.126636C3.07473 0.0283423 3.35287 -0.013522 3.6305 0.00381754C3.90812 0.0211571 4.17889 0.0973045 4.42486 0.227214C4.67083 0.357123 4.88639 0.537827 5.05725 0.757351L7.07656 3.35172C7.44667 3.82762 7.57717 4.44752 7.43092 5.03255L6.81557 7.49641C6.78375 7.62402 6.78547 7.7577 6.82056 7.88445C6.85564 8.01121 6.9229 8.12673 7.01581 8.21982L9.77985 10.9841C9.87304 11.0772 9.98875 11.1446 10.1157 11.1796C10.2427 11.2147 10.3766 11.2164 10.5043 11.1843L12.9669 10.5689C13.2556 10.4967 13.5569 10.4911 13.848 10.5525C14.1392 10.6139 14.4126 10.7407 14.6476 10.9233L17.2417 12.9417C18.1743 13.6673 18.2598 15.0455 17.4251 15.8792L16.2619 17.0425C15.4294 17.875 14.1852 18.2407 13.0254 17.8323C10.0568 16.7877 7.36148 15.0881 5.13937 12.8595C2.91114 10.6376 1.21168 7.94245 0.167025 4.97404C-0.240213 3.81524 0.125401 2.56981 0.957875 1.73727L2.12109 0.573968Z" fill="#E8DA93"/>
</svg>
