<svg width="60" height="60" viewBox="0 0 60 60" fill="none" xmlns="http://www.w3.org/2000/svg">
<path d="M59.0526 58.1053H53.3053V13.92C53.3053 13.4021 52.8758 12.9726 52.3579 12.9726H43.2505C42.7326 12.9726 42.3032 13.4021 42.3032 13.92V58.1053H35.5074V31.5158C35.5074 30.9979 35.0779 30.5684 34.56 30.5684H25.4526C24.9347 30.5684 24.5053 30.9979 24.5053 31.5158V58.1053H17.7095V41.2421C17.7095 40.7242 17.28 40.2947 16.7621 40.2947H7.6421C7.12421 40.2947 6.69474 40.7242 6.69474 41.2421V58.1053H1.89474V0.947368C1.89474 0.429474 1.46526 0 0.947369 0C0.429474 0 0 0.429474 0 0.947368V59.0526C0 59.5705 0.429474 60 0.947369 60H59.0526C59.5705 60 60 59.5705 60 59.0526C60 58.5347 59.5705 58.1053 59.0526 58.1053ZM8.58947 58.1053V42.1895H15.8021V58.1053H8.58947ZM26.3874 58.1053V32.4632H33.6V58.1053H26.3874ZM44.1853 58.1053V14.8674H51.3979V58.1053H44.1853Z" fill="#E8DA93"/>
<path d="M10.5094 37.4278C10.7494 37.4278 10.9894 37.3394 11.1789 37.1499L35.9115 12.4173V16.5731C35.9115 17.091 36.341 17.5204 36.8589 17.5204C37.3768 17.5204 37.8062 17.091 37.8062 16.5731V10.131C37.8062 9.61307 37.3768 9.18359 36.8589 9.18359H30.4168C29.8989 9.18359 29.4694 9.61307 29.4694 10.131C29.4694 10.6489 29.8989 11.0783 30.4168 11.0783H34.5726L9.83992 35.811C9.47361 36.1773 9.47361 36.7836 9.83992 37.1499C10.0294 37.3394 10.2694 37.4278 10.5094 37.4278Z" fill="#E8DA93"/>
</svg>
