<svg width="60" height="60" viewBox="0 0 60 60" fill="none" xmlns="http://www.w3.org/2000/svg">
<path d="M1.49099 32.298C1.56679 32.3233 1.65523 32.3233 1.74367 32.3233C2.17324 32.3233 2.53963 32.0454 2.65334 31.6412C2.79231 31.1359 2.50173 30.6054 1.99636 30.4664C1.50362 30.3275 0.972985 30.6306 0.834008 31.1233C0.695031 31.6285 0.985619 32.1591 1.49099 32.298Z" fill="#E8DA93"/>
<path d="M60 0.947368C60 0.429474 59.5704 0 59.0524 0C51.9015 0 45.1927 2.51368 39.8989 6.84632C35.717 4.74947 30.6128 5.53263 27.2647 8.88C27.0878 9.05684 26.9867 9.29684 26.9867 9.54947C26.9867 9.8021 27.0878 10.0421 27.2647 10.2189L32.6216 15.5747C32.4574 15.8779 32.2805 16.1684 32.1162 16.4842C29.223 15.1832 26.0392 14.4884 22.8427 14.4758C22.8174 14.4758 22.7922 14.4758 22.7795 14.4758C22.7543 14.4758 22.729 14.4884 22.7037 14.4884C17.1573 14.4884 11.8383 16.5095 7.70689 20.1853C5.07896 22.4968 3.00695 25.4147 1.68035 28.6358C1.59191 28.8632 1.59191 29.1284 1.69299 29.3558C1.78143 29.5958 1.97094 29.7726 2.19836 29.8737C2.3247 29.9116 2.43841 29.9368 2.56475 29.9368C2.94378 29.9368 3.29754 29.7095 3.43651 29.3558C4.56096 26.6274 6.29185 24.1516 8.43967 22.1179C10.0063 23.2168 11.6993 24.101 13.4934 24.7832C12.4068 28.2189 11.8004 32.1474 11.7246 36.3032H1.93304C1.97094 35.5326 2.03411 34.7621 2.14782 34.0042C2.22363 33.4863 1.86987 33.0063 1.35186 32.9305C0.83386 32.8547 0.353759 33.2084 0.277953 33.7137C0.0884396 34.8632 0 36.0505 0 37.2253C0 37.2379 0 37.2379 0 37.2505C0 37.2632 0 37.2632 0 37.2758C0 40.9011 0.83386 44.3621 2.46368 47.5579C4.01769 50.6147 6.30449 53.3305 9.05875 55.4147C13.0133 58.3958 17.7258 59.9874 22.7037 60C22.729 60 22.7416 60 22.7669 60C22.7795 60 22.8048 60 22.8174 60C28.3386 59.9874 33.6702 57.9663 37.8143 54.3158C42.7164 49.9958 45.5338 43.7811 45.5338 37.2379C45.5338 34.0168 44.8389 30.7958 43.5123 27.8653C43.8155 27.7137 44.1314 27.5621 44.422 27.3979L49.6905 32.6653C49.88 32.8547 50.12 32.9432 50.3601 32.9432C50.6001 32.9432 50.8402 32.8547 51.0297 32.6653C54.3272 29.3684 55.1485 24.3032 53.127 20.1474C57.5742 14.7411 60 8.03368 60 0.947368ZM49.7915 21.0063C47.3531 23.4442 44.5231 25.4021 41.3898 26.8168L37.2836 22.7116L35.1485 20.5768L33.1775 18.6063C37.6374 8.72842 47.2773 2.27368 58.0922 1.90737C57.8522 9.13263 54.921 15.8779 49.7915 21.0063ZM37.5363 25.6547L35.1485 29.4947L30.4991 24.8463L34.3399 22.4589L35.9444 24.0632L37.5363 25.6547ZM15.5401 49.92C14.3651 46.5221 13.6955 42.4295 13.6071 38.1853H21.8193V48.3663C19.6462 48.5684 17.5363 49.1116 15.5401 49.92ZM21.8193 50.2737V57.9663C20.2906 57.5747 18.7745 56.261 17.4732 54.1516C17.0183 53.3937 16.6014 52.5474 16.2224 51.6758C18.0164 50.9558 19.8863 50.4758 21.8193 50.2737ZM14.5041 52.4716C14.9084 53.4063 15.3506 54.3158 15.856 55.1495C16.4119 56.0463 16.9931 56.8042 17.6121 57.461C15.338 56.88 13.1901 55.92 11.2066 54.5937C12.2426 53.7726 13.3418 53.0653 14.5041 52.4716ZM23.7145 50.1474C23.8282 50.1474 23.9419 50.1347 24.0556 50.1347C25.9634 50.1347 27.8332 50.4 29.6273 50.9053C29.3114 51.7137 28.9829 52.4842 28.6166 53.1663C27.1889 55.8695 25.4833 57.5368 23.7145 57.9789V50.1474ZM30.2969 54.0379C30.7012 53.2674 31.0802 52.3958 31.434 51.4863C32.8996 52.0421 34.302 52.7621 35.6159 53.6463C33.3291 55.44 30.7138 56.7158 27.9343 57.4358C28.7808 56.5263 29.5768 55.4021 30.2969 54.0379ZM24.0556 48.24C23.9419 48.24 23.8282 48.2526 23.7145 48.2526V38.1726H31.9141C31.8383 42.1137 31.2571 45.8526 30.2337 49.0989C28.2502 48.5432 26.1781 48.24 24.0556 48.24ZM23.7145 36.2905V26.0968C25.2432 25.9579 26.7467 25.6547 28.2249 25.2C28.2628 25.2505 28.2754 25.3137 28.326 25.3516L30.9665 27.9916C31.5603 30.5811 31.8762 33.3726 31.9267 36.2905H23.7145ZM23.7145 24.1895V16.4842C25.6096 16.9516 27.1004 18.7579 28.048 20.2989C28.5028 21.0442 28.9198 21.8905 29.2988 22.7874C27.5047 23.52 25.6349 23.9874 23.7145 24.1895ZM14.0998 22.9768C12.6216 22.4211 11.2192 21.7011 9.90524 20.8295C12.192 19.0358 14.8073 17.7474 17.5995 17.0274C16.7404 17.9368 15.9444 19.0737 15.2243 20.4379C14.8326 21.1958 14.4536 22.0674 14.0998 22.9768ZM16.9046 21.3221C18.3323 18.6063 20.0505 16.9389 21.8193 16.4842V24.3032C19.8484 24.3663 17.8395 24.0884 15.9065 23.5579C16.2224 22.7621 16.5509 21.9916 16.9046 21.3221ZM29.2988 9.58737C31.8383 7.52842 35.3127 7.01053 38.3323 8.21053C36.5509 9.89053 34.9589 11.7853 33.6071 13.8947L29.2988 9.58737ZM31.3834 19.4905L32.9627 21.0695L31.1181 22.2189C30.6759 21.1705 30.1958 20.1853 29.6652 19.3137C29.1219 18.4295 28.5407 17.6842 27.9469 17.04C29.0967 17.3305 30.2085 17.7347 31.295 18.2147C31.2571 18.2905 31.2192 18.3789 31.1813 18.4547C31.0297 18.8084 31.1055 19.2253 31.3834 19.4905ZM15.2874 25.3642C17.2963 25.9326 19.3683 26.2358 21.4529 26.2358C21.5793 26.2358 21.693 26.2232 21.8067 26.2232V36.2905H13.6071C13.6955 32.3368 14.2767 28.6105 15.2874 25.3642ZM1.94567 38.1853H11.6993C11.7877 42.7074 12.5205 47.0779 13.7966 50.7032C12.3184 51.4484 10.9286 52.3579 9.62729 53.4316C4.96526 49.6295 2.21099 44.1726 1.94567 38.1853ZM37.0815 52.3705C35.5022 51.2589 33.8092 50.3621 32.0278 49.6926C33.1143 46.2568 33.7208 42.3284 33.7966 38.1726H43.5755C43.3481 43.5789 41.0234 48.6568 37.0815 52.3705ZM43.5881 36.2905H33.8219C33.784 34.2442 33.6197 32.2611 33.3291 30.3537L34.6557 31.68C34.8326 31.8568 35.0726 31.9579 35.3253 31.9579C35.3632 31.9579 35.4011 31.9579 35.439 31.9579C35.7296 31.92 35.9823 31.7684 36.1339 31.5158L38.9135 27.0316L40.4927 28.6105C40.6696 28.7874 40.9223 28.8884 41.1623 28.8884C41.2887 28.8884 41.415 28.8632 41.5287 28.8126C41.6172 28.7747 41.693 28.7368 41.7688 28.6989C42.868 31.0989 43.4744 33.6505 43.5881 36.2905ZM50.3348 30.6063L46.1023 26.3747C47.909 25.2126 49.602 23.8863 51.1308 22.3453C51.3455 22.1305 51.5477 21.9158 51.7498 21.6884C52.8869 24.6821 52.3563 28.1053 50.3348 30.6063Z" fill="#E8DA93"/>
<path d="M49.0965 15.827C50.36 15.827 51.6234 15.347 52.5962 14.387C54.5166 12.467 54.5166 9.32177 52.5962 7.40177C50.6632 5.46914 47.5299 5.48177 45.6095 7.40177C43.6891 9.32177 43.6891 12.467 45.6095 14.387C46.5697 15.347 47.8331 15.827 49.0965 15.827ZM46.9487 8.74072C47.5425 8.14703 48.3259 7.84388 49.1092 7.84388C49.8925 7.84388 50.6632 8.1344 51.2696 8.74072C52.4572 9.92809 52.4572 11.8607 51.2696 13.0481C50.082 14.2355 48.149 14.2355 46.9614 13.0481C45.7611 11.8607 45.7611 9.92809 46.9487 8.74072Z" fill="#E8DA93"/>
</svg>
