<svg width="60" height="60" viewBox="0 0 60 60" fill="none" xmlns="http://www.w3.org/2000/svg">
<circle cx="30" cy="30" r="30" fill="#E8DA93"/>
<path d="M17.3998 28.7996H25.1998C25.5316 28.7996 25.7998 28.5308 25.7998 28.1996C25.7998 27.8684 25.5316 27.5996 25.1998 27.5996H17.3998C17.068 27.5996 16.7998 27.8684 16.7998 28.1996C16.7998 28.5308 17.068 28.7996 17.3998 28.7996Z" fill="black"/>
<path d="M32.9998 31.2002H17.3998C17.068 31.2002 16.7998 31.469 16.7998 31.8002C16.7998 32.1314 17.068 32.4002 17.3998 32.4002H32.9998C33.3316 32.4002 33.5998 32.1314 33.5998 31.8002C33.5998 31.469 33.3316 31.2002 32.9998 31.2002Z" fill="black"/>
<path d="M32.9998 34.7998H17.3998C17.068 34.7998 16.7998 35.0686 16.7998 35.3998C16.7998 35.731 17.068 35.9998 17.3998 35.9998H32.9998C33.3316 35.9998 33.5998 35.731 33.5998 35.3998C33.5998 35.0686 33.3316 34.7998 32.9998 34.7998Z" fill="black"/>
<path d="M43.8431 15.042L23.3579 15C21.3959 15 19.7999 16.596 19.7999 18.558V21.6324L14.9579 21.6426C12.9959 21.6426 11.3999 23.2386 11.3999 25.2006V37.8852C11.3999 39.8472 12.9959 41.4426 14.9579 41.4426H18.5999V47.4426C18.5999 47.6904 18.7523 47.913 18.9839 48.0024C19.0541 48.0294 19.1273 48.0426 19.1999 48.0426C19.3655 48.0426 19.5281 47.9736 19.6439 47.8464L25.4663 41.4414L35.4419 41.4006C37.4039 41.4006 38.9999 39.8046 38.9999 37.8432V37.7754L42.1559 41.247C42.2717 41.3742 42.4343 41.4432 42.5999 41.4432C42.6725 41.4432 42.7457 41.43 42.8159 41.403C43.0475 41.3136 43.1999 41.091 43.1999 40.8432V34.8432H43.8419C45.8039 34.8432 47.3999 33.2472 47.3999 31.2858V18.6C47.3999 16.6386 45.8045 15.0426 43.8431 15.042ZM37.7999 37.8426C37.7999 39.1428 36.7421 40.2 35.4395 40.2L25.1975 40.242C25.0295 40.2426 24.8687 40.314 24.7559 40.4382L19.7999 45.8904V40.842C19.7999 40.5108 19.5317 40.242 19.1999 40.242H14.9579C13.6577 40.242 12.5999 39.1842 12.5999 37.8846V25.2C12.5999 23.8998 13.6577 22.842 14.9591 22.842L20.3999 22.8306C20.4005 22.8306 20.4005 22.8306 20.4011 22.8306L35.4419 22.7994C36.7421 22.7994 37.7999 23.8572 37.7999 25.1574V36.222V37.8426ZM46.1999 31.2846C46.1999 32.5848 45.1421 33.642 43.8419 33.642H42.5999C42.2681 33.642 41.9999 33.9108 41.9999 34.242V39.2904L38.9999 35.9904V25.158C38.9999 23.196 37.4039 21.6 35.4407 21.6L20.9999 21.6294V18.5574C20.9999 17.2572 22.0577 16.1994 23.3567 16.1994L43.8413 16.2414C43.8419 16.2414 43.8419 16.2414 43.8425 16.2414C45.1427 16.2414 46.2005 17.2992 46.2005 18.5994V31.2846H46.1999Z" fill="black"/>
</svg>
