<svg width="50" height="60" viewBox="0 0 50 60" fill="none" xmlns="http://www.w3.org/2000/svg">
<path d="M40.608 48.2016C40.2053 48.5426 40.1793 49.1489 40.5301 49.5405C40.7119 49.7426 40.9847 49.8563 41.2575 49.8563C41.4914 49.8563 41.7252 49.7679 41.907 49.6037C42.3098 49.2626 42.3357 48.6563 41.985 48.2773C41.6343 47.8984 40.9847 47.8605 40.608 48.2016Z" fill="#E8DA93"/>
<path d="M49.4024 9.81474L25.3702 0.0757895C25.1364 -0.0252632 24.8636 -0.0252632 24.6298 0.0757895L0.597558 9.81474C0.233827 9.95368 0 10.2947 0 10.6863V35.6968C0.0129904 38.8926 1.351 42.1516 3.94908 45.3726C5.98857 47.9116 8.75552 50.4 12.4058 52.9895C18.2515 57.0821 23.9673 59.6463 24.6038 59.9242C24.7337 59.9747 24.8636 60 25.0065 60C25.1364 60 25.2663 59.9747 25.4092 59.9242C25.4092 59.9116 25.4222 59.9116 25.4612 59.8989C26.7862 59.2926 33.736 56.0716 39.8805 51.2842C40.2962 50.9558 40.3611 50.3495 40.0364 49.9453C39.7116 49.5537 39.0621 49.4905 38.6594 49.8063C35.2819 52.4463 31.6316 54.5811 29.1634 55.92C27.2279 56.9684 25.734 57.6758 24.9935 58.0168C23.5516 57.3474 18.5763 54.9853 13.549 51.4484C9.18421 48.4042 1.88361 42.3032 1.93557 35.6968V11.3179L7.61237 9.01895C7.63835 9.00632 7.66433 9.00632 7.67732 8.99368L24.9935 1.98316L48.0514 11.3179V35.6968C48.0644 39.1326 46.1678 42.7705 42.4396 46.4968C42.0629 46.8632 42.0759 47.4695 42.4526 47.8358C42.8293 48.1895 43.4658 48.1768 43.8296 47.8105C47.9215 43.7305 50 39.6505 50 35.6968V10.6863C50 10.2947 49.7662 9.95368 49.4024 9.81474Z" fill="#E8DA93"/>
<path d="M34.6584 9.92818L25.3703 6.16397C25.1364 6.07555 24.8636 6.07555 24.6298 6.16397L6.37832 13.5534C6.01459 13.705 5.78076 14.0461 5.78076 14.4377V35.6966C5.84571 39.4608 9.21022 43.7429 15.7964 48.4292C19.0829 50.7282 22.3825 52.5345 24.5779 53.6461C24.7207 53.7219 24.8766 53.7471 25.0325 53.7471C25.1884 53.7471 25.3443 53.7219 25.4742 53.6461C29.9948 51.3977 34.5025 48.4671 37.8151 45.5998C42.0889 41.8861 44.1803 38.6398 44.2193 35.6966V14.4377C44.2193 14.0461 43.9855 13.705 43.6218 13.5534L39.4519 11.8734C38.9712 11.6713 38.3866 11.9113 38.1918 12.3787C38.0879 12.6187 38.0879 12.8713 38.1788 13.1113C38.2827 13.3387 38.4646 13.5156 38.6984 13.6166C38.6984 13.6166 38.6984 13.6166 38.7114 13.6292L42.2708 15.0692V35.6966C42.3097 37.8945 40.1663 41.0777 36.516 44.185C33.4503 46.8377 29.2544 49.5913 25.0325 51.7387C22.993 50.6903 19.9403 48.9977 16.9395 46.8882C11.2627 42.9471 7.65138 38.5513 7.72932 35.6966V15.0692L25.0065 8.07134L33.9179 11.684C34.3986 11.8734 34.9832 11.6334 35.191 11.1661C35.3859 10.6861 35.152 10.1303 34.6584 9.92818Z" fill="#E8DA93"/>
<path d="M36.308 12.6444C36.4249 12.6949 36.5548 12.7201 36.6847 12.7201C37.0874 12.7201 37.4382 12.4928 37.5811 12.1391C37.685 11.9117 37.685 11.6465 37.5811 11.4191C37.4901 11.1791 37.2953 11.0023 37.0614 10.9012C36.5808 10.6991 35.9832 10.9391 35.7884 11.4065C35.6845 11.6465 35.6845 11.8991 35.7884 12.1391C35.8793 12.3665 36.0742 12.5559 36.308 12.6444Z" fill="#E8DA93"/>
<path d="M24.9937 25.2627C28.3972 25.2627 31.1641 22.5722 31.1641 19.2627C31.1641 15.9532 28.3972 13.2627 24.9937 13.2627C21.5902 13.2627 18.8232 15.9532 18.8232 19.2627C18.8232 22.5595 21.5902 25.2627 24.9937 25.2627ZM24.9937 15.1448C27.319 15.1448 29.2156 16.989 29.2156 19.2501C29.2156 21.5111 27.319 23.3553 24.9937 23.3553C22.6684 23.3553 20.7718 21.5111 20.7718 19.2501C20.7718 16.989 22.6684 15.1448 24.9937 15.1448Z" fill="#E8DA93"/>
<path d="M29.3713 26.8551C29.2543 26.8046 29.1244 26.7919 28.9815 26.7793L20.5378 26.9561C20.4079 26.9561 20.278 26.994 20.1481 27.0446C16.0171 28.8761 13.3411 32.9056 13.3281 37.314C13.3281 37.5667 13.432 37.8067 13.6139 37.9835C13.7958 38.1603 14.0426 38.2614 14.3024 38.2614H35.6586C35.9184 38.2614 36.1652 38.1603 36.3471 37.9835C36.529 37.8067 36.6329 37.5667 36.6329 37.314C36.6329 32.7035 33.775 28.5982 29.3713 26.8551ZM15.3416 36.3793C15.6924 33.1456 17.7449 30.2782 20.7976 28.8509L28.8257 28.6867C32.0862 30.0509 34.2946 32.994 34.6583 36.3793H15.3416Z" fill="#E8DA93"/>
</svg>
