<svg width="25" height="35" viewBox="0 0 25 35" fill="none" xmlns="http://www.w3.org/2000/svg">
<path d="M0.67446 20.8052C1.04317 20.8052 1.34892 20.5619 1.34892 20.2524C1.34892 19.9502 1.04317 19.707 0.67446 19.707C0.305755 19.707 0 19.9502 0 20.2524C0 20.5619 0.296763 20.8052 0.67446 20.8052Z" fill="#E8DA93"/>
<path d="M21.6187 0H3.3723C1.5018 0.00736997 0 1.24553 0 2.76374V18.7787C0 19.0882 0.305755 19.3388 0.67446 19.3388C1.04317 19.3388 1.34892 19.0882 1.34892 18.7787V6.19078H23.6511V28.8166H1.34892V21.7267C1.34892 21.4171 1.04317 21.1739 0.67446 21.1739C0.305755 21.1739 0 21.4171 0 21.7267V32.2363C0 33.7618 1.51978 35 3.3723 35H21.6277C23.4802 35 25 33.7618 25 32.2363V2.75637C24.991 1.24553 23.4802 0.00736997 21.6187 0ZM1.34892 5.08528V2.76374C1.34892 1.84986 2.25719 1.1055 3.3723 1.1055H21.6277C22.7428 1.1055 23.6511 1.84986 23.6511 2.76374V5.08528H1.34892ZM21.6187 33.9019H3.3723C2.25719 33.9019 1.34892 33.1575 1.34892 32.2436V29.9295H23.6511V32.2436C23.6421 33.1575 22.7428 33.9019 21.6187 33.9019Z" fill="#E8DA93"/>
<path d="M15.9443 2.42383H9.04677C8.67807 2.42383 8.37231 2.67441 8.37231 2.97658C8.37231 3.27874 8.67807 3.52932 9.04677 3.52932H15.9443C16.313 3.52932 16.6187 3.27874 16.6187 2.97658C16.6187 2.67441 16.313 2.42383 15.9443 2.42383Z" fill="#E8DA93"/>
<path d="M12.4908 30.2305C11.3937 30.2305 10.5034 30.9601 10.5034 31.8592C10.5034 32.7584 11.3937 33.488 12.4908 33.488C13.588 33.488 14.4782 32.7584 14.4782 31.8592C14.4782 30.9601 13.588 30.2305 12.4908 30.2305ZM12.4908 32.3825C12.1401 32.3825 11.8523 32.1467 11.8523 31.8592C11.8523 31.5718 12.1401 31.336 12.4908 31.336C12.8415 31.336 13.1293 31.5718 13.1293 31.8592C13.1293 32.1467 12.8505 32.3825 12.4908 32.3825Z" fill="#E8DA93"/>
</svg>
