<svg width="80" height="80" viewBox="0 0 80 80" fill="none" xmlns="http://www.w3.org/2000/svg">
<path d="M11.2904 67.5383L6.33659 69.3844L11.2904 71.2306V72.7383L4.64429 70.1536V68.6152L11.2904 66.0306V67.5383ZM28.8597 67.4767C28.2443 66.9536 27.3827 66.6767 26.2443 66.6767C25.6289 66.6767 25.0135 66.769 24.4597 66.9229C23.9058 67.0767 23.4135 67.3229 23.0135 67.6306L23.7212 68.9536C23.9981 68.7075 24.3366 68.5229 24.7674 68.3998C25.1674 68.2459 25.5981 68.1844 26.0289 68.1844C26.6751 68.1844 27.1674 68.3383 27.475 68.6152C27.8135 68.8921 27.9674 69.3229 27.9674 69.846V69.9383H25.9674C24.8597 69.9383 24.0597 70.1229 23.5366 70.5536C23.0135 70.9844 22.7674 71.5383 22.7674 72.2152C22.7674 72.6767 22.8597 73.0767 23.1058 73.4152C23.352 73.7844 23.6904 74.0613 24.1212 74.246C24.552 74.4613 25.0443 74.5537 25.6289 74.5537C26.2135 74.5537 26.7058 74.4613 27.1058 74.2767C27.5366 74.0921 27.8443 73.846 28.0597 73.5075V74.4306H29.752V69.9383C29.752 68.8306 29.4443 68.0306 28.8597 67.4767ZM27.9674 72.0306C27.8135 72.4306 27.5674 72.7075 27.2289 72.9229C26.8597 73.1383 26.4597 73.2306 26.0289 73.1998C25.5674 73.1998 25.1981 73.1075 24.952 72.9229C24.6751 72.7383 24.552 72.4921 24.552 72.1536C24.552 71.4767 25.0751 71.1383 26.1212 71.1383H27.9674V72.0306ZM37.0751 66.6767V68.3998C36.9212 68.369 36.7674 68.369 36.6443 68.369C35.9366 68.369 35.3827 68.5844 35.0135 68.9844C34.6135 69.3844 34.4289 69.969 34.4289 70.7383V74.4613H32.6443V66.769H34.3674V67.9075C34.8597 67.0767 35.7827 66.6767 37.0751 66.6767ZM46.152 68.5536C45.7827 67.969 45.2904 67.5075 44.675 67.169C44.0597 66.8306 43.352 66.6767 42.552 66.6767C41.7827 66.6767 41.075 66.8306 40.4597 67.169C39.8443 67.5075 39.352 67.969 39.0135 68.5536C38.675 69.1383 38.4904 69.8152 38.4904 70.5844C38.4904 71.3229 38.675 71.9998 39.0135 72.6152C39.352 73.2306 39.8443 73.6921 40.4597 74.0306C41.1058 74.369 41.7827 74.5537 42.552 74.5229C43.352 74.5229 44.0597 74.369 44.675 74.0306C45.3212 73.6921 45.8135 73.1998 46.152 72.6152C46.4904 72.0306 46.675 71.3536 46.675 70.5844C46.675 69.8152 46.4904 69.1383 46.152 68.5536ZM44.2135 72.3383C43.7827 72.769 43.2289 73.0152 42.5827 73.0152C41.9366 73.0152 41.3827 72.769 40.952 72.3383C40.5212 71.8767 40.3058 71.2921 40.3058 70.5844C40.3058 69.8459 40.5212 69.2613 40.952 68.8306C41.3827 68.369 41.9058 68.1536 42.5827 68.1536C43.2289 68.1536 43.7827 68.3998 44.2135 68.8306C44.6443 69.2921 44.8597 69.8767 44.8597 70.5844C44.8597 71.3229 44.6443 71.9075 44.2135 72.3383ZM55.9674 66.769L52.675 74.4613H50.8289L47.5366 66.769H49.4135L51.8135 72.4613L54.275 66.769H55.9674ZM57.6597 66.769V74.4613H59.4443V66.769H57.6597ZM59.4135 63.6306C59.1674 63.4152 58.9212 63.3229 58.5827 63.3229C58.2443 63.3229 57.9674 63.4152 57.752 63.6306C57.5366 63.8459 57.4135 64.0921 57.4135 64.3998C57.4135 64.7075 57.5366 64.9536 57.752 65.169C57.9674 65.3844 58.2443 65.4767 58.5827 65.5075C58.9212 65.5075 59.1981 65.3844 59.4135 65.169C59.6289 64.9536 59.752 64.6767 59.752 64.369C59.752 64.0613 59.6289 63.8152 59.4135 63.6306ZM67.0135 74.0306C66.7981 74.2152 66.552 74.3383 66.2443 74.4306C65.9366 74.5229 65.6289 74.5537 65.2904 74.5537C64.4597 74.5537 63.7827 74.3383 63.3212 73.8767C62.8597 73.4152 62.6443 72.7998 62.6443 71.9383V68.2459H61.3827V66.7998H62.6443V65.0459H64.4289V66.7998H66.4904V68.2459H64.4289V71.9075C64.4289 72.2767 64.5212 72.5536 64.7058 72.769C64.8904 72.9537 65.1674 73.0767 65.5058 73.0767C65.9058 73.0767 66.2443 72.9844 66.5212 72.769L67.0135 74.0306ZM75.475 68.6152V70.1844L68.8289 72.769V71.2613L73.7827 69.4152L68.8289 67.569V66.0613L75.475 68.6152ZM18.4597 77.8152C18.6751 77.5998 18.7981 77.2921 18.7981 76.9537C18.7981 76.6152 18.6751 76.3383 18.4289 76.0921C18.1827 75.8767 17.9058 75.7537 17.5366 75.7537C17.1981 75.7537 16.8904 75.8767 16.6443 76.0921C16.3981 76.3075 16.2751 76.6152 16.2751 76.9537C16.2751 77.2921 16.3981 77.5998 16.6443 77.8152C16.8904 78.0306 17.1981 78.1537 17.5674 78.1537C17.9366 78.1537 18.2135 78.0306 18.4597 77.8152ZM15.1981 72.9844C15.1981 73.2613 15.0751 73.5075 14.9212 73.6921C14.7674 73.846 14.552 73.969 14.3058 73.969H14.2135C13.9981 73.969 13.7212 73.7537 13.4751 73.4767C13.3827 73.3844 13.3212 73.2921 13.2597 73.169C13.2289 73.1075 13.2289 73.0152 13.1981 72.9537V72.9229C13.1981 72.8613 13.1674 72.7998 13.1674 72.7075C13.1674 72.5229 13.2289 72.3383 13.2904 72.1844L13.4135 72.0306C13.5674 71.8767 13.7827 71.7844 13.9981 71.7844C14.1827 71.7844 14.3674 71.846 14.4904 71.969C14.552 72.0306 14.6443 72.0921 14.7058 72.1536L14.7366 72.1844C14.7674 72.2152 14.8289 72.246 14.8597 72.2767C15.1058 72.4613 15.1981 72.7075 15.1981 72.9844ZM20.0289 63.169C19.9981 63.1382 19.9674 63.1382 19.9674 63.1382C19.9366 63.1075 19.9058 63.1075 19.8443 63.0767H19.8135C19.2289 62.769 18.4289 62.5844 17.5674 62.5844C16.6751 62.5844 15.8751 62.769 15.2904 63.0767C15.2597 63.0767 15.2289 63.1075 15.1981 63.1075C15.1674 63.1382 15.1366 63.1382 15.1058 63.169C15.0751 63.1998 15.0135 63.2305 14.9827 63.2921C14.8289 63.4459 14.7366 63.6921 14.7366 63.9382C14.7366 64.1844 14.8289 64.3998 14.952 64.5536C15.1366 64.769 15.4135 64.7998 15.6597 64.6767C16.0289 64.4921 16.4597 64.369 16.952 64.369C17.352 64.369 17.752 64.4613 18.0904 64.6152C18.3058 64.7075 18.4289 64.9536 18.4289 65.1998V70.769C18.4289 71.6921 18.2135 72.3075 17.7212 72.646C17.7212 72.646 17.6904 72.646 17.6904 72.6767H16.9212C16.8597 72.6767 16.7674 72.6767 16.7058 72.7075C16.6135 72.7383 16.5212 72.7998 16.4597 72.8613C16.4289 72.8921 16.3981 72.9229 16.3981 72.9537C16.3674 72.9844 16.3674 73.0152 16.3366 73.046C16.3366 73.0767 16.3058 73.0767 16.3058 73.1075C16.2443 73.2306 16.2135 73.3844 16.2135 73.5383C16.2135 73.9075 16.4289 74.246 16.7058 74.3998C16.8289 74.4613 16.952 74.4921 17.1058 74.4921H18.0904C18.152 74.4921 18.2135 74.4921 18.2751 74.4613H18.3058C18.3058 74.4613 18.4289 74.4306 18.4904 74.3998C18.8904 74.246 19.2289 73.9998 19.5058 73.6921C20.0904 73.0152 20.3981 71.9998 20.3981 70.646V63.8459C20.3674 63.5998 20.2443 63.3229 20.0289 63.169ZM40.0597 1.53809C23.5855 1.53809 10.1827 14.9406 10.1827 31.4148C10.1827 47.8893 23.5852 61.2921 40.0597 61.2921C56.5338 61.2921 69.9366 47.8893 69.9366 31.4148C69.9363 14.9406 56.5338 1.53809 40.0597 1.53809ZM40.0597 59.9736C24.3123 59.9736 11.5009 47.1625 11.5009 31.4148C11.5009 15.6677 24.3123 2.85624 40.0597 2.85624C55.807 2.85624 68.6184 15.6677 68.6184 31.4148C68.6181 47.1622 55.8067 59.9736 40.0597 59.9736Z" fill="#E8DA93"/>
<path d="M49.7342 38.884L49.7404 38.8778C49.7844 38.859 49.8154 38.8338 49.8594 38.8277L49.8656 38.8215L49.8717 38.8153C51.0376 38.2261 52.0407 37.8624 52.6927 37.6243C52.9715 37.519 53.2537 37.4228 53.5388 37.336C53.9976 37.1942 54.4619 37.0708 54.9305 36.9661C55.2942 36.8784 55.6327 36.803 56.0274 36.6652C56.8487 36.383 57.6324 35.9381 58.372 35.3424C59.0554 35.6181 59.7385 35.7624 60.4031 35.7624C60.6539 35.7624 60.8982 35.7375 61.1428 35.6997C63.669 35.2735 65.6874 32.7535 66.2517 29.3683C66.4547 29.3139 66.6341 29.1942 66.7622 29.0276C66.8902 28.861 66.9598 28.6569 66.96 28.4467C66.9599 28.3211 66.935 28.1968 66.8867 28.0808C66.8384 27.9648 66.7676 27.8596 66.6785 27.771C66.5894 27.6825 66.4837 27.6124 66.3674 27.5648C66.2511 27.5173 66.1266 27.4931 66.001 27.4938C65.4681 27.4938 65.0419 27.9138 65.0419 28.4467C65.0419 28.7101 65.1422 28.9418 65.3114 29.1114C65.3991 29.2055 65.5059 29.2806 65.6311 29.3246C65.092 32.371 63.249 34.703 61.0364 35.079C60.3594 35.1981 59.6447 35.1292 58.9114 34.8723C61.3499 32.5781 63.2868 28.4658 64.6785 22.592C64.9159 22.5531 65.13 22.4265 65.2783 22.2372C65.4267 22.0479 65.4986 21.8098 65.4796 21.57C65.4607 21.3303 65.3524 21.1063 65.1761 20.9427C64.9999 20.779 64.7686 20.6876 64.528 20.6865C64.402 20.6859 64.277 20.7104 64.1604 20.7584C64.0438 20.8064 63.9379 20.877 63.8487 20.9662C63.7595 21.0553 63.6889 21.1613 63.6409 21.2779C63.5929 21.3945 63.5684 21.5194 63.569 21.6455C63.569 21.9089 63.6754 22.1406 63.8385 22.3101C63.9013 22.3791 63.9828 22.4354 64.0644 22.4794C62.6351 28.4911 60.648 32.5907 58.153 34.7157C58.1342 34.7344 58.109 34.7532 58.0902 34.772C57.3754 35.3612 56.617 35.8 55.821 36.0757C55.4573 36.2009 55.1502 36.2701 54.793 36.3513C54.7742 36.3575 54.7616 36.3575 54.7428 36.364C55.5139 35.3923 56.2348 34.3704 56.9056 33.3298C58.1342 31.4243 59.3 29.6252 60.0397 27.3809C60.8357 24.9612 61.0302 22.3409 60.6228 19.5766C60.7895 19.5001 60.9308 19.3773 61.0297 19.2228C61.1286 19.0683 61.181 18.8887 61.1807 18.7052C61.1807 18.1723 60.7545 17.7523 60.2216 17.7523C60.0961 17.7512 59.9717 17.7751 59.8556 17.8226C59.7395 17.8701 59.634 17.9402 59.5453 18.0289C59.4566 18.1176 59.3864 18.2231 59.3389 18.3392C59.2914 18.4554 59.2676 18.5798 59.2687 18.7052C59.2687 18.9686 59.369 19.2003 59.5321 19.3695C59.656 19.4996 59.8149 19.591 59.9896 19.6329H59.9957C60.397 22.316 60.2151 24.8548 59.444 27.1864C58.7293 29.3492 57.5887 31.1169 56.3788 32.991C55.5698 34.2492 54.6908 35.461 53.7459 36.6206H53.7397C53.7022 36.6267 53.6708 36.6393 53.6333 36.652C53.4458 36.095 53.3588 35.5092 53.3764 34.9218C53.4077 33.7246 53.8591 32.7655 54.2727 32.1323C54.3041 32.1384 54.329 32.1449 54.3604 32.1449C54.3791 32.151 54.3979 32.151 54.4231 32.151C54.5483 32.1511 54.6722 32.1265 54.7878 32.0786C54.9035 32.0307 55.0085 31.9605 55.097 31.872C55.1855 31.7835 55.2557 31.6785 55.3036 31.5628C55.3515 31.4472 55.3761 31.3233 55.376 31.1981C55.3767 31.0725 55.3526 30.948 55.305 30.8317C55.2575 30.7154 55.1874 30.6097 55.0989 30.5206C55.0103 30.4315 54.905 30.3607 54.7891 30.3124C54.6731 30.2641 54.5488 30.2392 54.4231 30.2391C54.297 30.2385 54.1721 30.263 54.0555 30.311C53.9389 30.359 53.8329 30.4296 53.7438 30.5188C53.6546 30.6079 53.584 30.7139 53.536 30.8305C53.488 30.9471 53.4635 31.072 53.4641 31.1981C53.4641 31.4489 53.5582 31.6744 53.7148 31.8437C53.2634 32.552 52.7871 33.5987 52.7493 34.9027C52.7293 35.5604 52.8269 36.2163 53.0376 36.8397C52.8622 36.896 52.6804 36.9587 52.4797 37.0341C51.9721 37.2221 51.1884 37.5104 50.2481 37.9492C50.8373 36.3255 51.1321 34.7584 51.1382 33.1787C51.1508 31.599 50.8813 30.4895 50.6493 29.5117C50.6053 29.3237 50.5616 29.1418 50.5237 28.9664C51.9859 28.5145 53.3316 27.7485 54.4668 26.7221C55.9776 25.3492 56.805 23.7948 57.2502 22.5975C57.4983 22.5903 57.7338 22.4867 57.907 22.3089C58.0801 22.131 58.1773 21.8928 58.1779 21.6446C58.1779 21.3902 58.0769 21.1463 57.897 20.9664C57.7171 20.7866 57.4732 20.6855 57.2188 20.6855C57.0927 20.685 56.9678 20.7094 56.8512 20.7575C56.7346 20.8055 56.6286 20.8761 56.5395 20.9653C56.4503 21.0544 56.3797 21.1604 56.3317 21.277C56.2837 21.3936 56.2592 21.5185 56.2597 21.6446C56.2597 21.908 56.3662 22.1397 56.5293 22.3092C56.5668 22.3468 56.6047 22.3781 56.6484 22.4157C56.1013 23.8864 55.2091 25.2042 54.0468 26.2584C52.9961 27.2115 51.7515 27.9258 50.3985 28.3523C50.2607 27.5751 50.2419 26.7978 50.505 25.776C50.7557 24.8108 51.4139 23.0052 53.0188 21.7264C53.5828 21.2877 53.9905 21.1184 54.4231 20.9366C54.4293 20.9366 54.4357 20.9305 54.4419 20.9305C54.8056 20.78 55.1816 20.6295 55.6268 20.3098C57.0687 19.288 57.9776 17.4261 58.316 14.7871C58.5219 14.734 58.7043 14.6141 58.8348 14.4462C58.9653 14.2784 59.0364 14.072 59.037 13.8594C59.037 13.605 58.9359 13.3611 58.7561 13.1812C58.5762 13.0014 58.3323 12.9003 58.0779 12.9003C57.9518 12.8998 57.8269 12.9242 57.7103 12.9722C57.5937 13.0202 57.4877 13.0909 57.3985 13.18C57.3094 13.2692 57.2388 13.3751 57.1907 13.4917C57.1427 13.6083 57.1183 13.7333 57.1188 13.8594C57.1188 14.1075 57.2155 14.346 57.3884 14.524C57.4699 14.6117 57.5764 14.6806 57.6893 14.7308C57.3696 17.1818 56.5545 18.8806 55.2696 19.7957C55.0235 19.9709 54.7585 20.1181 54.4797 20.2345C53.8894 18.6366 53.6479 16.9309 53.7714 15.232C53.8756 13.8777 54.215 12.5519 54.7745 11.3142C54.7994 11.3203 54.8308 11.3268 54.856 11.3268C54.881 11.3329 54.9 11.3329 54.9188 11.3329C55.1729 11.3319 55.4162 11.2305 55.5958 11.0509C55.7755 10.8712 55.8768 10.6279 55.8779 10.3739C55.8778 10.2482 55.8528 10.1239 55.8045 10.0079C55.7562 9.89194 55.6855 9.78667 55.5963 9.69812C55.5072 9.60958 55.4015 9.53951 55.2852 9.49194C55.169 9.44437 55.0444 9.42024 54.9188 9.42093C54.3859 9.42093 53.9597 9.84093 53.9597 10.3739C53.9597 10.6308 54.0601 10.8566 54.2231 11.0258C53.6277 12.336 53.2576 13.7591 53.1511 15.1818C53.0131 16.9776 53.272 18.7817 53.9096 20.4661C53.5397 20.6292 53.1385 20.836 52.6308 21.2372C51.7281 21.9581 51.1013 22.8231 50.6687 23.6443C50.0678 22.989 49.6052 22.2193 49.3084 21.3812C48.6127 19.3754 49.1391 17.62 49.3145 17.0434C49.5653 16.2034 49.8474 15.7895 50.1419 15.3508C50.3927 14.9809 50.6496 14.5985 50.8942 13.9655C51.2828 12.9563 51.8031 11.0068 51.2954 8.67478C51.4353 8.58964 51.5508 8.46993 51.631 8.32717C51.7111 8.18441 51.7531 8.02342 51.753 7.8597C51.7537 7.73408 51.7295 7.60956 51.682 7.49329C51.6344 7.37702 51.5643 7.27129 51.4758 7.18217C51.3872 7.09306 51.282 7.02231 51.166 6.974C51.05 6.92568 50.9257 6.90075 50.8001 6.90063C50.6738 6.89956 50.5486 6.92364 50.4318 6.97146C50.3149 7.01928 50.2088 7.08988 50.1195 7.17916C50.0302 7.26843 49.9596 7.37458 49.9118 7.49142C49.864 7.60826 49.8399 7.73346 49.841 7.8597C49.841 8.12309 49.9413 8.35509 50.1044 8.52432C50.2487 8.67478 50.449 8.78124 50.681 8.80647C51.1573 10.9815 50.6748 12.7997 50.3111 13.74C50.1545 14.1412 49.9976 14.4295 49.8284 14.6865C49.1951 14.2163 48.4053 13.4452 47.8662 12.2917C47.3521 11.1822 47.2896 9.69662 47.697 7.84739C47.9257 7.81562 48.1353 7.70242 48.2873 7.52856C48.4393 7.3547 48.5234 7.13186 48.5244 6.90093C48.5242 6.77531 48.4993 6.65095 48.451 6.53499C48.4027 6.41902 48.3319 6.31375 48.2428 6.22521C48.1537 6.13666 48.048 6.06659 47.9317 6.01903C47.8154 5.97146 47.6909 5.94732 47.5653 5.94801C47.4398 5.9469 47.3154 5.9708 47.1993 6.01829C47.0832 6.06579 46.9777 6.13594 46.889 6.22465C46.8003 6.31335 46.7301 6.41884 46.6826 6.53496C46.6351 6.65107 46.6113 6.77549 46.6124 6.90093C46.6124 7.16432 46.7127 7.39601 46.8757 7.56555C46.9385 7.62832 47.0074 7.68462 47.0825 7.72216C46.6499 9.70924 46.7188 11.3265 47.2957 12.5554C47.7917 13.6101 48.5438 14.5238 49.4834 15.2132C49.2139 15.6145 48.9444 16.072 48.7124 16.8618C48.5244 17.4886 47.9539 19.388 48.7185 21.5883C49.057 22.5661 49.6274 23.4815 50.3797 24.2461C50.1844 24.6903 50.0251 25.1494 49.9034 25.6191C49.4647 27.2864 49.7342 28.3837 50.0351 29.656C50.2671 30.6024 50.5241 31.6683 50.5114 33.179C50.5053 34.8778 50.1477 36.5766 49.4145 38.3569C48.9516 38.5968 48.4978 38.854 48.0542 39.128C47.6049 38.395 47.3025 37.5817 47.1641 36.7332C47.1641 36.7083 47.1579 36.683 47.1514 36.6517V36.6455L47.1505 36.6437C46.9274 35.1178 47.2899 33.8295 47.6465 33.016H47.6653C48.1917 33.016 48.6244 32.5898 48.6244 32.063C48.6244 31.8087 48.5233 31.5647 48.3435 31.3849C48.1636 31.205 47.9196 31.104 47.6653 31.104C47.5392 31.1034 47.4142 31.1279 47.2976 31.1759C47.181 31.2239 47.0751 31.2945 46.9859 31.3837C46.8968 31.4729 46.8261 31.5788 46.7781 31.6954C46.7301 31.812 46.7057 31.937 46.7062 32.063C46.7062 32.32 46.8127 32.552 46.9757 32.7277C47.0007 32.7526 47.0259 32.7778 47.0573 32.7966C46.6655 33.7141 46.463 34.7013 46.4619 35.699C46.1362 35.3812 45.7314 35.1561 45.2896 35.047C45.1036 34.997 44.9118 34.9716 44.7191 34.9717C44.6446 34.8065 44.5238 34.6666 44.3714 34.5687C44.219 34.4707 44.0415 34.4191 43.8604 34.42C43.7343 34.4194 43.6093 34.4439 43.4927 34.4919C43.3761 34.5399 43.2702 34.6105 43.181 34.6997C43.0919 34.7889 43.0212 34.8948 42.9732 35.0114C42.9252 35.128 42.9008 35.2529 42.9013 35.379C42.9013 35.636 43.0016 35.868 43.1647 36.0433C43.3277 36.2064 43.5533 36.3129 43.7979 36.3255C43.8167 36.3381 43.8354 36.3381 43.8607 36.3381C44.3121 36.3381 44.6881 36.0184 44.7884 35.5984C44.9074 35.6046 45.0204 35.6237 45.133 35.6547C45.9982 35.8741 46.4305 36.595 46.5561 36.852C46.7033 37.7782 47.0314 38.6665 47.5216 39.4661C46.2428 40.3123 44.9077 41.4156 43.7102 42.8449C43.2025 43.4529 42.7136 44.0359 42.281 44.6941C42.2247 43.7224 42.0616 42.5252 41.6979 41.6538C41.4284 40.9956 41.1588 40.6193 40.9207 40.2873C40.7884 40.0997 40.6656 39.9267 40.5548 39.7221C40.6646 39.4959 40.7631 39.2645 40.8499 39.0286L40.8967 38.888V38.8723C40.9124 38.8569 40.9281 38.8255 40.9124 38.8098C41.2435 37.9177 41.4738 36.9913 41.5988 36.048C41.6613 35.7049 41.6924 35.3615 41.6924 35.0181C41.7237 34.831 41.7391 34.6594 41.7237 34.472C41.7316 34.1476 41.7264 33.823 41.7081 33.499C42.3481 32.2984 42.909 31.6554 43.4533 31.0341C43.6759 30.7877 43.8912 30.5348 44.0988 30.2757C44.317 30.3261 44.5902 30.3695 44.9013 30.3695C45.2837 30.3695 45.7287 30.3067 46.1927 30.1126C47.1797 29.7154 47.717 28.9621 47.989 28.4363C47.9991 28.4372 48.0087 28.4403 48.0188 28.4409C48.0394 28.4477 48.0597 28.4477 48.0804 28.4477C48.3341 28.447 48.5773 28.3459 48.7567 28.1665C48.9362 27.9871 49.0373 27.7439 49.0379 27.4901C49.0381 27.3643 49.0135 27.2397 48.9654 27.1235C48.9174 27.0072 48.8469 26.9016 48.7579 26.8126C48.6689 26.7236 48.5633 26.6531 48.447 26.6051C48.3308 26.557 48.2062 26.5324 48.0804 26.5326C47.9544 26.5318 47.8295 26.5561 47.713 26.6039C47.5965 26.6517 47.4906 26.7223 47.4015 26.8113C47.3125 26.9004 47.242 27.0063 47.1941 27.1228C47.1463 27.2393 47.122 27.3642 47.1228 27.4901C47.1228 27.7501 47.2253 27.9824 47.3896 28.1535C47.3964 28.1606 47.4047 28.1658 47.4117 28.1726C47.1837 28.6043 46.7416 29.2135 45.9545 29.5357C45.4111 29.7581 44.9004 29.7631 44.513 29.7107C44.7613 29.3436 44.9853 28.9605 45.1834 28.564C45.4779 27.9997 47.9917 22.8908 46.1551 18.0326C45.7853 17.0609 45.497 16.4655 45.2462 15.9326C44.9265 15.2618 44.6508 14.6852 44.2684 13.5191C43.5348 11.2748 43.9988 9.18124 44.6256 7.34463C44.878 7.34203 45.1191 7.23975 45.2964 7.06009C45.4737 6.88043 45.5728 6.63796 45.5721 6.38555C45.5727 6.26024 45.5484 6.13605 45.5008 6.02016C45.4531 5.90427 45.3829 5.79898 45.2943 5.71037C45.2057 5.62176 45.1004 5.55159 44.9845 5.50392C44.8686 5.45625 44.7444 5.43202 44.6191 5.43263C44.0801 5.43263 43.6601 5.85263 43.6601 6.38555C43.6601 6.64893 43.7604 6.88063 43.9234 7.05016C43.9548 7.08155 43.9862 7.11293 44.0237 7.13786C43.4721 8.75508 42.8514 11.1812 43.6727 13.7135C44.0677 14.9172 44.3622 15.544 44.6819 16.2022C44.9388 16.7477 45.2084 17.3055 45.5659 18.252C47.3397 22.9348 44.7385 28.0624 44.6256 28.2754C44.3121 28.8898 44.0111 29.3474 43.7167 29.736C43.4721 30.0618 43.2277 30.3378 42.977 30.62C42.5404 31.124 42.0911 31.639 41.601 32.4255C41.57 32.2119 41.5329 31.9992 41.4899 31.7877C41.3182 30.9295 41.0687 30.1649 40.8188 29.5252L40.8173 29.5212C41.4213 28.9482 41.9353 28.2874 42.3419 27.5609C44.4813 23.7089 42.7502 19.3098 42.1696 18.0526C42.0825 17.8649 41.9245 17.7194 41.7303 17.648C41.5361 17.5766 41.3215 17.5851 41.1336 17.6717C40.9459 17.7588 40.8004 17.9167 40.729 18.1109C40.6576 18.3051 40.6661 18.5197 40.7527 18.7077C41.257 19.7957 42.761 23.5944 40.9767 26.8018C40.7476 27.2121 40.4748 27.5964 40.1631 27.948C39.7733 27.0594 39.4456 26.4978 39.1493 26.0298C38.8997 25.6086 38.697 25.2809 38.5253 24.8283C37.6982 22.6908 38.4628 20.5061 39.009 18.8991L39.1336 18.5246C39.5081 17.4166 39.8201 16.8708 40.1324 16.3403C40.3976 15.9191 40.6474 15.4665 40.9127 14.7954C41.693 12.6889 42.2545 10.4265 40.4133 6.01078C40.2416 5.60524 39.7893 5.41786 39.3991 5.58955C38.9936 5.76124 38.8062 6.21355 38.9779 6.6037C40.741 10.8166 40.0234 12.7203 39.4459 14.2492C39.2431 14.7954 39.0247 15.1542 38.7905 15.56C38.4628 16.1218 38.0727 16.7769 37.6514 18.0409L37.5265 18.3997C36.9336 20.116 36.0441 22.7218 37.0739 25.3898C37.2924 25.9671 37.5422 26.3883 37.8228 26.8409C38.1348 27.3714 38.5093 27.9643 38.9619 29.0566C39.3521 30.0083 39.8825 31.3034 40.0853 32.9261C40.1321 33.3006 40.1634 33.675 40.1788 34.0652V34.0963C40.1788 34.2366 40.1788 34.3772 40.1631 34.5175L40.0539 34.299C39.7262 33.6126 39.2736 32.7855 38.6653 31.8181C38.213 31.116 37.8696 30.5855 37.573 30.1797L37.561 30.1677C37.553 30.1541 37.5459 30.1406 37.5373 30.1277C37.5221 30.103 37.5042 30.0802 37.4837 30.0597L37.4761 30.0498C37.465 30.036 37.4622 30.0221 37.4484 30.008C37.1674 29.6178 36.9333 29.3526 36.7462 29.1184C36.4342 28.744 36.2311 28.5255 35.9191 27.9172C34.4367 25.0151 34.2653 21.0674 35.4668 17.8689C35.7788 17.0418 36.0287 16.6517 36.2936 16.2151C36.6213 15.7314 36.949 15.2163 37.261 14.1554C37.9785 11.7994 37.9007 9.20924 37.0582 6.47878C36.9333 6.07324 36.4964 5.83909 36.0908 5.9637C35.6696 6.08863 35.4511 6.52555 35.5757 6.94678C36.3247 9.38093 36.3871 11.6434 35.7631 13.7031C35.5133 14.5455 35.2794 14.92 34.9828 15.3883C34.7019 15.8409 34.3742 16.3403 33.9997 17.3077C32.6265 20.9744 32.8296 25.312 34.5302 28.62C34.6862 28.9009 34.8111 29.1347 34.9357 29.3221C34.9357 29.3221 34.9481 29.3234 34.9502 29.3357C34.8377 29.2842 34.7273 29.2284 34.6191 29.1683C33.2736 28.4231 32.649 27.2378 32.3961 26.5978C32.2391 26.1972 31.785 25.996 31.3844 26.1591C31.2891 26.1966 31.2021 26.2526 31.1285 26.3238C31.0548 26.3949 30.9959 26.48 30.9552 26.5739C30.9144 26.6679 30.8926 26.769 30.891 26.8714C30.8893 26.9738 30.9079 27.0755 30.9456 27.1707C31.2748 28.0058 32.0914 29.5523 33.8619 30.5335C34.6681 30.9775 35.5591 31.2457 36.4764 31.3206C36.7703 31.7528 37.0579 32.1894 37.3388 32.6301C38.4154 34.3778 38.9773 35.548 39.2425 36.3283C39.5391 37.1864 39.5077 37.5923 39.4924 37.8104C39.4767 38.0757 39.4299 38.2787 39.3831 38.4658C39.3364 38.6061 39.2896 38.731 39.2271 38.8713C39.1804 38.9963 39.1025 39.1366 39.0244 39.2926C38.8059 39.7452 38.5253 40.3067 38.2441 41.1806C37.9806 41.9858 37.793 42.814 37.6834 43.6541L37.6816 43.6513C36.8868 42.3446 35.8413 40.9255 34.593 39.7169C34.7228 39.3024 34.8197 38.8775 34.8853 38.4486C35.2961 38.0089 35.7361 37.5974 36.2022 37.2169C36.6193 36.8795 37.0564 36.5675 37.5111 36.2827C37.598 36.2283 37.6733 36.1574 37.7327 36.0739C37.7922 35.9903 37.8345 35.8959 37.8575 35.796C37.8804 35.6961 37.8834 35.5927 37.8663 35.4916C37.8492 35.3906 37.8124 35.2939 37.7579 35.207C37.6476 35.0321 37.4725 34.908 37.271 34.8617C37.0694 34.8155 36.8577 34.8509 36.6822 34.9603C36.1745 35.2783 35.6865 35.6268 35.221 36.004C35.1401 36.0695 35.0613 36.1378 34.9816 36.2052V36.2034C34.881 34.9112 34.5258 33.6518 33.9364 32.4975C33.7367 32.1129 33.2684 31.9677 32.8837 32.1563C32.7002 32.2519 32.5617 32.4161 32.4985 32.6132C32.4353 32.8103 32.4524 33.0244 32.5462 33.2089C33.1198 34.3277 33.4289 35.5632 33.4499 36.8203C33.4573 37.4141 33.3989 38.007 33.2757 38.588C32.9518 38.3431 32.6137 38.1177 32.2631 37.9129C31.9161 37.7071 31.5571 37.5221 31.1881 37.359C30.9154 34.5166 30.7397 31.7184 30.6717 29.0403L30.6548 28.3532C30.6237 27.0064 30.5967 25.8461 30.3954 24.8231C31.1979 23.8252 31.7948 22.6704 32.1268 21.4554C32.3767 20.5443 32.709 18.7003 32.1268 16.5917C31.9447 15.9326 31.7373 15.4797 31.5244 15.0994C32.1797 14.5683 32.7244 13.9443 33.1373 13.2332C34.6139 10.6886 33.9508 7.99447 33.5976 6.95386C33.53 6.75853 33.388 6.59776 33.2026 6.50645C33.0172 6.41514 32.8032 6.40067 32.6071 6.46617C32.4112 6.5329 32.2497 6.67471 32.1583 6.86044C32.0668 7.04617 32.0528 7.26061 32.1194 7.45662C32.4044 8.29478 32.9437 10.46 31.7871 12.4498C31.5102 12.9289 31.1521 13.3569 30.7274 13.7342C30.6522 13.5783 30.5839 13.4193 30.5225 13.2575C30.0044 11.8954 29.9161 10.3092 30.2619 8.54155C30.3012 8.3383 30.2583 8.12776 30.1426 7.9561C30.0269 7.78444 29.8478 7.66568 29.6447 7.62586C29.2256 7.54955 28.8127 7.81786 28.729 8.24309C28.3284 10.3 28.441 12.1729 29.0641 13.8123C29.3367 14.5302 29.6231 14.984 29.8748 15.3849C30.1613 15.8391 30.4081 16.2305 30.6231 17.0061C31.1062 18.7554 30.8302 20.2852 30.6216 21.0424C30.4289 21.7425 30.1378 22.4116 29.757 23.0298C29.5678 22.6975 29.3416 22.3876 29.0828 22.1061C28.3881 21.3474 27.7434 21.0791 27.1204 20.8185C26.9865 20.7626 26.8535 20.705 26.7213 20.6455C27.2737 18.8011 27.4722 16.8687 27.3062 14.9505C27.1542 13.1832 26.6959 11.4559 25.9517 9.84585C25.8653 9.65792 25.7077 9.51202 25.5137 9.44027C25.3197 9.36851 25.1051 9.37678 24.9171 9.46324C24.7292 9.5497 24.5833 9.70727 24.5115 9.9013C24.4398 10.0953 24.4481 10.3099 24.5345 10.4979C25.2028 11.9447 25.6148 13.4965 25.7521 15.0843C25.888 16.6541 25.7524 18.2356 25.3511 19.7594C24.0154 18.5658 23.1413 16.6055 22.7533 13.9172C22.6908 13.4889 22.2841 13.2025 21.8696 13.256C21.6649 13.2858 21.4803 13.3955 21.3563 13.5612C21.2324 13.7268 21.1792 13.9349 21.2084 14.1397C21.7019 17.5545 22.941 19.9938 24.8884 21.388C25.5207 21.8406 26.0511 22.0615 26.5188 22.2581C27.0705 22.4883 27.4696 22.6544 27.933 23.1603C28.3668 23.6335 28.6287 24.1683 28.7927 24.8031C28.7951 24.8135 28.7976 24.8237 28.8007 24.8338C29.0062 25.6498 29.0524 26.6335 29.0834 27.8757C28.2746 27.4848 27.5218 26.9873 26.845 26.3966C25.0607 24.8348 24.2121 22.9849 23.8142 21.708C23.7505 21.5132 23.6127 21.3512 23.4306 21.2571C23.2485 21.1631 23.0367 21.1444 22.841 21.2053C22.6452 21.2661 22.4813 21.4015 22.3846 21.5822C22.2878 21.7629 22.2661 21.9745 22.3241 22.1711C22.7828 23.64 23.7594 25.7701 25.8179 27.5698C26.7999 28.4298 27.9199 29.1179 29.1308 29.6052C29.2013 31.9255 29.3493 34.3264 29.5696 36.7677L29.5634 36.7658C29.078 36.6346 28.5868 36.5256 28.0914 36.4394C27.998 35.1397 27.7177 33.8603 27.2591 32.6406C26.6609 31.0557 25.7714 29.5968 24.6367 28.3391C24.568 28.2628 24.4851 28.2009 24.3925 28.1567C24.2999 28.1125 24.1995 28.087 24.0971 28.0817C23.9947 28.0763 23.8922 28.0912 23.7955 28.1254C23.6988 28.1596 23.6098 28.2126 23.5336 28.2812C23.4574 28.3498 23.3954 28.4328 23.3512 28.5254C23.3071 28.618 23.2816 28.7183 23.2762 28.8208C23.2708 28.9232 23.2857 29.0257 23.3199 29.1224C23.3542 29.2191 23.4071 29.3081 23.4757 29.3843C24.4813 30.4968 25.2695 31.7879 25.7994 33.1907C26.0898 33.9673 26.2989 34.7719 26.4231 35.5917C25.5597 34.7581 24.5339 33.519 23.5244 32.0754C21.0438 28.5295 20.0028 24.0163 20.5133 19.02C20.5238 18.9181 20.5142 18.8152 20.4849 18.717C20.4556 18.6189 20.4072 18.5275 20.3425 18.4481C20.2778 18.3687 20.1981 18.3028 20.1079 18.2543C20.0178 18.2058 19.9189 18.1755 19.817 18.1652C19.3887 18.112 19.0062 18.432 18.9622 18.8615C18.4121 24.2357 19.549 29.1132 22.2444 32.9683C22.6345 33.5264 23.3637 34.5298 24.2093 35.5098C21.3493 34.1015 17.1465 29.4412 16.5622 21.6523C16.5443 21.4463 16.4466 21.2555 16.2899 21.1206C16.1333 20.9857 15.9301 20.9173 15.7238 20.9301C15.5173 20.946 15.3255 21.0433 15.1907 21.2005C15.0559 21.3578 14.9891 21.5621 15.005 21.7686C15.4622 27.8551 17.9447 32.163 20.5324 34.7147C20.0689 34.7239 19.6066 34.6653 19.1601 34.5409C17.0191 33.9314 15.3751 31.7495 14.9727 28.9809C14.9102 28.5526 14.5065 28.2707 14.0874 28.3212C13.8827 28.3513 13.6982 28.4615 13.5746 28.6274C13.4509 28.7934 13.3981 29.0016 13.4278 29.2064C13.9185 32.5815 16.0013 35.2649 18.7336 36.0406C19.2837 36.1975 19.8597 36.2753 20.4478 36.2753C21.0019 36.2753 21.5677 36.2021 22.1311 36.0643L22.1336 36.0661C22.8668 36.5923 23.5782 36.9735 24.217 37.2095C25.1825 37.5652 26.1225 37.7141 27.0262 37.852C28.0179 38.007 29.0351 38.1664 30.1484 38.6098C30.1622 38.6157 30.1757 38.6215 30.1902 38.6264C30.6334 38.8067 31.0633 39.0185 31.4764 39.26C31.6505 39.3615 31.8213 39.4704 31.9917 39.5867C31.4976 39.7541 30.9863 39.866 30.4674 39.9206C28.7179 40.1092 27.2988 39.6338 26.4059 39.2055C26.0213 39.0169 25.553 39.18 25.3644 39.5686C25.2755 39.7554 25.2641 39.9698 25.3328 40.1649C25.4015 40.3601 25.5446 40.5201 25.7308 40.6101C26.6382 41.0492 28.0139 41.5249 29.6834 41.5249C30.0011 41.5237 30.3185 41.5067 30.6345 41.4741C31.3822 41.3941 32.1081 41.2163 32.8087 40.9513C33.0005 40.8804 33.1894 40.8017 33.3748 40.7153C33.5438 40.874 33.7084 41.0374 33.8684 41.2052C34.7391 42.112 35.5336 43.1569 36.1939 44.2015C35.4216 44.08 34.497 44.0898 33.3148 44.1012C32.5585 44.1123 31.6733 44.1224 30.6247 44.1046C28.9831 43.9627 26.9317 43.4763 24.9145 42.1553C22.6714 40.6864 21.3841 38.7803 20.6982 37.4409C20.6035 37.2572 20.4399 37.1184 20.2433 37.0547C20.0466 36.9911 19.8328 37.0078 19.6484 37.1012C19.5571 37.1478 19.4759 37.2119 19.4094 37.2899C19.3429 37.3679 19.2924 37.4582 19.2609 37.5557C19.2293 37.6532 19.2173 37.756 19.2255 37.8581C19.2337 37.9603 19.262 38.0598 19.3087 38.151C20.0797 39.6596 21.5302 41.8033 24.0597 43.4596C24.1967 43.5495 24.3339 43.6329 24.4711 43.716C20.3893 43.263 19.2419 42.6129 18.3761 41.9313C16.8385 40.7184 15.7782 38.9129 15.2234 36.563C15.1259 36.1455 14.7145 35.8729 14.2862 35.9824C14.1865 36.0057 14.0923 36.0484 14.0091 36.1082C13.9259 36.1679 13.8553 36.2435 13.8014 36.3305C13.7475 36.4176 13.7112 36.5145 13.6948 36.6156C13.6784 36.7166 13.682 36.82 13.7056 36.9197C14.3425 39.6227 15.589 41.7209 17.4099 43.1563C18.8484 44.2883 20.6434 44.9864 26.0037 45.4298C27.769 45.5763 29.2425 45.6387 30.4896 45.6618C30.9431 45.7012 31.3693 45.7178 31.7588 45.7178C32.2108 45.7178 32.6145 45.6963 32.9585 45.6661L33.3314 45.6612C35.6994 45.6384 36.4764 45.6566 37.1379 46.2769C38.6007 47.6483 38.4391 51.1027 36.6702 56.2664C36.6298 56.3838 36.618 56.5092 36.6358 56.6322C36.6536 56.7551 36.7006 56.872 36.7727 56.9731C36.8449 57.0741 36.9402 57.1565 37.0506 57.2133C37.1611 57.2701 37.2835 57.2997 37.4077 57.2996C37.7324 57.2996 38.0354 57.0953 38.1453 56.7722C39.7936 51.9661 40.1216 48.5609 39.1345 46.4393C39.0428 44.775 39.2456 43.1729 39.7281 41.664C39.8194 41.3612 39.9288 41.0641 40.0557 40.7744C40.113 40.6316 40.1699 40.503 40.2271 40.3818C40.2884 40.4723 40.3508 40.5606 40.4145 40.6489C40.6404 40.9686 40.8785 41.3009 41.1228 41.8901C41.5804 43.0058 41.7059 44.8363 41.6745 45.7953C41.5457 46.0661 41.4359 46.3455 41.3462 46.6316C41.3367 46.6541 41.3253 46.6763 41.3213 46.6996C41.2597 46.8793 41.2037 47.0707 41.1542 47.2683C40.6339 49.387 41.029 51.3304 41.3173 52.747C41.5124 53.7022 41.7868 54.6395 42.1376 55.5492C42.1991 55.7242 42.2705 55.9036 42.3548 56.0925C42.369 56.1264 42.381 56.1609 42.3954 56.1947C42.3985 56.2018 42.4059 56.2049 42.4093 56.2113C42.4557 56.3116 42.4954 56.4089 42.5471 56.5107C42.6622 56.7378 42.7862 56.9772 42.9287 57.1944C42.9512 57.2289 42.9803 57.2586 43.0143 57.2818C43.0483 57.305 43.0865 57.3212 43.1269 57.3296C43.1672 57.338 43.2087 57.3383 43.2492 57.3306C43.2896 57.3229 43.3281 57.3072 43.3625 57.2845C43.5074 57.1898 43.5477 56.9956 43.4527 56.8504C43.3311 56.6649 43.225 56.4612 43.1065 56.2273C43.0407 56.0978 42.9877 55.9741 42.9317 55.8489C42.8551 55.6654 42.7817 55.4807 42.7114 55.2947C42.6902 55.2329 42.661 55.1645 42.6434 55.1058C42.6404 55.095 42.6327 55.0876 42.6284 55.0775C42.3352 54.2773 42.1023 53.4564 41.9314 52.6215C41.6367 51.1858 41.2794 49.4058 41.7622 47.4184C41.8062 47.2366 41.8561 47.0612 41.9188 46.8919C41.9188 46.8867 41.9204 46.8827 41.9241 46.8812C42.3874 46.2159 42.9441 45.6916 43.5797 45.331C45.2345 44.3907 47.0274 44.7356 48.3441 44.9864L48.6637 45.0427C53.1268 45.8575 57.6591 45.1116 59.9724 44.071C62.3545 42.999 64.2853 40.8489 65.7268 37.6646C66.2284 37.6393 66.6231 37.2193 66.6231 36.7117C66.6237 36.5863 66.5995 36.4622 66.5518 36.3463C66.5042 36.2304 66.434 36.1251 66.3454 36.0365C66.2568 35.9479 66.1515 35.8777 66.0356 35.83C65.9197 35.7824 65.7955 35.7581 65.6702 35.7587C65.1311 35.7587 64.7111 36.1787 64.7111 36.7117C64.7111 36.975 64.8114 37.2067 64.9745 37.3763C65.0185 37.4203 65.0622 37.4578 65.1124 37.4892C63.7459 40.4855 61.9277 42.504 59.7151 43.4944C58.0434 44.2458 55.1684 44.8387 52.0102 44.7569L52.0173 44.7544C53.4346 44.2396 54.7757 43.5353 56.0041 42.6606C57.416 41.661 58.6691 40.4543 59.7213 39.0812C59.7527 39.0873 59.7902 39.0938 59.8216 39.0938C59.841 39.1035 59.8627 39.1078 59.8844 39.1064C60.1384 39.1054 60.3817 39.004 60.5614 38.8244C60.741 38.6447 60.8424 38.4014 60.8434 38.1473C60.8434 38.0214 60.8186 37.8967 60.7704 37.7803C60.7222 37.664 60.6516 37.5582 60.5625 37.4692C60.4735 37.3801 60.3677 37.3095 60.2514 37.2613C60.135 37.2131 60.0103 37.1883 59.8844 37.1883C59.7583 37.1877 59.6333 37.2122 59.5167 37.2602C59.4001 37.3082 59.2942 37.3788 59.205 37.468C59.1158 37.5572 59.0452 37.6631 58.9972 37.7797C58.9492 37.8963 58.9248 38.0212 58.9253 38.1473C58.9253 38.3855 59.0194 38.5987 59.1634 38.768C58.1646 40.0658 56.9771 41.2067 55.6404 42.1529C54.0246 43.2935 52.2181 44.1362 50.3059 44.6415L50.2976 44.644C49.788 44.5914 49.2805 44.5194 48.7764 44.4283L48.4567 44.3655C47.1339 44.1147 45.1219 43.7323 43.2724 44.7793C43.0964 44.8793 42.9268 44.9916 42.7622 45.1126C43.1816 44.4443 43.6813 43.8563 44.1939 43.2436C45.1396 42.1157 46.2292 41.1167 47.4348 40.2723C47.4474 40.2784 47.4536 40.2784 47.4662 40.2849C48.2028 40.559 48.9719 40.736 49.7542 40.8113C51.0023 40.9244 52.2604 40.7836 53.4527 40.3975L53.4714 40.4163C53.6367 40.5877 53.8605 40.6906 54.0982 40.7046C54.117 40.7107 54.1422 40.7107 54.161 40.7107C54.415 40.7097 54.6583 40.6083 54.838 40.4287C55.0176 40.249 55.119 40.0057 55.12 39.7516C55.12 39.4973 55.019 39.2533 54.8391 39.0735C54.6593 38.8936 54.4153 38.7926 54.161 38.7926C54.0349 38.792 53.9099 38.8165 53.7933 38.8645C53.6767 38.9125 53.5708 38.9831 53.4816 39.0723C53.3925 39.1615 53.3218 39.2674 53.2738 39.384C53.2258 39.5006 53.2014 39.6256 53.2019 39.7516C53.2019 39.7704 53.2019 39.7957 53.208 39.8144C52.0985 40.1655 50.9388 40.2907 49.8105 40.1843C49.3867 40.1461 48.9672 40.0707 48.5567 39.9587L48.0804 39.8335C48.1868 39.7646 48.2871 39.7018 48.3939 39.6329C48.8315 39.3671 49.2785 39.1173 49.7342 38.884ZM65.5247 28.6286C65.4997 28.5712 65.4869 28.5093 65.4871 28.4467C65.4871 28.1646 65.7191 27.9391 66.0013 27.9391C66.2834 27.9391 66.5154 28.1646 66.5154 28.4467C66.5154 28.6034 66.4465 28.7477 66.3274 28.8354C66.2744 28.8844 66.2097 28.9189 66.1394 28.9357C66.0946 28.9485 66.0482 28.9548 66.0016 28.9544C65.8887 28.9544 65.7884 28.9169 65.7007 28.8603C65.6232 28.7993 65.5626 28.7196 65.5247 28.6286ZM64.0517 21.8271C64.033 21.7708 64.0142 21.708 64.0142 21.6452C64.0142 21.3569 64.2524 21.1311 64.5284 21.1311C64.8105 21.1311 65.0425 21.3566 65.0425 21.6452C65.0425 21.8271 64.9484 21.9898 64.7979 22.0778C64.7576 22.1041 64.713 22.1231 64.6662 22.1341C64.6215 22.1474 64.575 22.1537 64.5284 22.1529C64.3953 22.152 64.2675 22.1004 64.1711 22.0086C64.1185 21.9576 64.0777 21.8956 64.0517 21.8271ZM59.9142 19.1068C59.8393 19.0499 59.7809 18.9742 59.745 18.8874C59.7249 18.8288 59.7143 18.7674 59.7136 18.7055C59.7136 18.57 59.7674 18.4401 59.8632 18.3443C59.959 18.2484 60.089 18.1946 60.2245 18.1946C60.36 18.1946 60.49 18.2484 60.5858 18.3443C60.6816 18.4401 60.7354 18.57 60.7354 18.7055C60.7354 18.8621 60.66 19.0126 60.541 19.1006C60.4882 19.1452 60.426 19.1772 60.3591 19.1945C60.3144 19.2077 60.2679 19.2141 60.2213 19.2132C60.1087 19.2132 60.0022 19.1757 59.9142 19.1068ZM54.4231 30.6846C54.6988 30.6846 54.9373 30.9101 54.9373 31.1987C54.9373 31.4055 54.8056 31.5812 54.6237 31.6627C54.5985 31.6689 54.5797 31.6754 54.5548 31.6815C54.5121 31.6944 54.4677 31.7007 54.4231 31.7003C54.2351 31.7003 54.072 31.6061 53.9905 31.4557C53.968 31.4325 53.9509 31.4047 53.9404 31.3741C53.9209 31.3176 53.9103 31.2585 53.909 31.1987C53.909 30.9104 54.141 30.6846 54.4231 30.6846ZM57.2188 21.1314C57.501 21.1314 57.733 21.3569 57.733 21.6455C57.733 21.8523 57.6077 22.0403 57.4194 22.1157C57.4007 22.1218 57.3754 22.1283 57.3567 22.1344C57.3119 22.1473 57.2654 22.1536 57.2188 22.1532C57.1409 22.1537 57.0639 22.1358 56.9942 22.1009C56.9245 22.0661 56.864 22.0152 56.8176 21.9526C56.7867 21.9146 56.7613 21.8724 56.7422 21.8274C56.7234 21.7711 56.7047 21.7083 56.7047 21.6455C56.7047 21.3569 56.9367 21.1314 57.2188 21.1314ZM57.6013 14.0354C57.5786 13.9796 57.5659 13.9202 57.5637 13.86C57.5637 13.5717 57.7957 13.3458 58.0776 13.3458C58.186 13.3457 58.2916 13.38 58.3793 13.4437C58.4671 13.5074 58.5323 13.5972 58.5657 13.7003C58.5992 13.8035 58.5991 13.9145 58.5654 14.0176C58.5318 14.1206 58.4663 14.2103 58.3785 14.2738C58.3284 14.3052 58.2782 14.3366 58.2154 14.3492C58.1706 14.3621 58.1242 14.3684 58.0776 14.368C57.9524 14.368 57.8333 14.324 57.7453 14.2428C57.6817 14.1859 57.6324 14.1148 57.6013 14.0354ZM54.9182 9.86678C54.9853 9.86633 55.0518 9.87911 55.114 9.90439C55.1762 9.92966 55.2327 9.96694 55.2805 10.0141C55.3282 10.0612 55.3662 10.1173 55.3923 10.1792C55.4183 10.241 55.432 10.3074 55.4324 10.3745C55.4336 10.4863 55.3973 10.5954 55.3291 10.6841C55.2609 10.7727 55.1648 10.8359 55.0564 10.8634C55.0311 10.8695 55.0062 10.876 54.981 10.876C54.9622 10.8822 54.9434 10.8822 54.9182 10.8822C54.8153 10.8819 54.7149 10.8506 54.6299 10.7925C54.545 10.7344 54.4795 10.6521 54.4419 10.5563C54.4169 10.499 54.4041 10.437 54.4044 10.3745C54.4044 10.0923 54.636 9.86678 54.9182 9.86678ZM50.7997 8.36862C50.7121 8.36862 50.6305 8.3437 50.5551 8.30585C50.4739 8.26327 50.4059 8.19932 50.3584 8.12091C50.3109 8.0425 50.2857 7.95261 50.2856 7.86093C50.2856 7.72543 50.3394 7.59547 50.4352 7.49966C50.5311 7.40384 50.661 7.35001 50.7965 7.35001C50.932 7.35001 51.062 7.40384 51.1578 7.49966C51.2536 7.59547 51.3074 7.72543 51.3074 7.86093C51.3074 7.98647 51.2634 8.10555 51.1822 8.19324C51.1172 8.27061 51.0295 8.32543 50.9314 8.34985C50.8887 8.36257 50.8443 8.36889 50.7997 8.36862ZM47.189 7.24647C47.1461 7.19854 47.1121 7.14331 47.0887 7.0834C47.0699 7.02709 47.0511 6.96432 47.0511 6.90155C47.0511 6.61324 47.2893 6.3874 47.5653 6.3874C47.8474 6.3874 48.0794 6.61293 48.0794 6.90155C48.0794 7.08955 47.973 7.25878 47.8161 7.34678C47.7785 7.36555 47.7407 7.37816 47.7031 7.39078C47.6584 7.40406 47.6119 7.41039 47.5653 7.40955C47.4148 7.40955 47.2831 7.34678 47.189 7.24647ZM47.6656 31.5498C47.9477 31.5498 48.1797 31.7754 48.1797 32.064C48.1797 32.2707 48.0545 32.4464 47.8727 32.528C47.8477 32.5341 47.8287 32.5406 47.8037 32.5467C47.7589 32.5596 47.7125 32.5659 47.6659 32.5655C47.4967 32.5655 47.3462 32.484 47.2585 32.3587C47.2271 32.3274 47.2084 32.2837 47.1896 32.2397C47.1647 32.1846 47.1519 32.1248 47.1521 32.0643C47.1516 31.9967 47.1646 31.9297 47.1903 31.8671C47.2159 31.8046 47.2537 31.7478 47.3015 31.6999C47.3493 31.6521 47.406 31.6142 47.4685 31.5884C47.531 31.5627 47.598 31.5495 47.6656 31.5498ZM44.3117 35.6181V35.6243C44.2778 35.6839 44.2319 35.7359 44.1769 35.7769C44.1218 35.8179 44.0589 35.847 43.9921 35.8624C43.9497 35.8774 43.9053 35.8858 43.8604 35.8874C43.7558 35.8871 43.6537 35.8552 43.5676 35.7959C43.4814 35.7366 43.4152 35.6526 43.3776 35.555C43.3491 35.4774 43.3397 35.3941 43.3504 35.3121C43.361 35.2301 43.3914 35.1519 43.4388 35.0841C43.4862 35.0164 43.5493 34.9611 43.6227 34.923C43.6961 34.885 43.7777 34.8652 43.8604 34.8655C43.9856 34.8655 44.105 34.9157 44.1988 35.0034C44.3053 35.0849 44.3742 35.2227 44.3742 35.3794C44.3745 35.4615 44.3557 35.5427 44.3117 35.6181ZM48.0801 26.9787C48.3604 26.9787 48.593 27.2046 48.593 27.4917C48.5935 27.603 48.5567 27.7113 48.4885 27.7993C48.4203 27.8873 48.3246 27.9499 48.2167 27.9772C48.1724 27.9912 48.1262 27.9981 48.0797 27.9978C47.945 27.9974 47.8158 27.9441 47.7199 27.8495C47.6241 27.7548 47.5691 27.6264 47.5668 27.4917C47.5668 27.4243 47.5801 27.3576 47.6059 27.2953C47.6317 27.2331 47.6695 27.1765 47.7172 27.1289C47.7648 27.0812 47.8214 27.0435 47.8837 27.0177C47.9459 26.9919 48.0127 26.9787 48.0801 26.9787ZM44.6188 5.88001C44.8945 5.88001 45.1265 6.10555 45.1265 6.3877C45.1279 6.49272 45.0958 6.59546 45.035 6.68107C44.9742 6.76669 44.8877 6.83075 44.7881 6.86401C44.7754 6.87016 44.7628 6.87016 44.7505 6.87663C44.7078 6.88948 44.6634 6.89581 44.6188 6.8954C44.4434 6.8954 44.2804 6.80124 44.1862 6.66986C44.1674 6.63847 44.1487 6.60709 44.1361 6.56955C44.1072 6.49194 44.0976 6.40849 44.1082 6.32637C44.1187 6.24425 44.149 6.16591 44.1965 6.09809C44.244 6.03026 44.3072 5.97498 44.3808 5.937C44.4543 5.89901 44.536 5.87946 44.6188 5.88001ZM65.669 36.2073C65.9447 36.2073 66.1767 36.4329 66.1767 36.715C66.1783 36.7954 66.1597 36.8749 66.1224 36.9461C66.0851 37.0174 66.0304 37.078 65.9634 37.1224V37.1286C65.9133 37.16 65.8631 37.1913 65.8004 37.204C65.7577 37.2168 65.7133 37.2231 65.6687 37.2227C65.5244 37.2227 65.393 37.1664 65.2988 37.0723C65.252 37.0203 65.2139 36.961 65.1859 36.8969C65.157 36.8193 65.1475 36.7358 65.158 36.6536C65.1686 36.5715 65.1989 36.4931 65.2464 36.4253C65.2939 36.3575 65.3572 36.3022 65.4308 36.2642C65.5044 36.2263 65.5862 36.2067 65.669 36.2073ZM59.8831 37.6366C60.1653 37.6366 60.3973 37.8624 60.3973 38.1507C60.3973 38.3701 60.2594 38.5581 60.0588 38.6209C60.0462 38.627 60.0336 38.6335 60.0213 38.6335C59.9768 38.6484 59.9303 38.6568 59.8834 38.6584C59.7933 38.6582 59.7048 38.6344 59.6267 38.5893C59.5486 38.5442 59.4837 38.4795 59.4385 38.4015C59.4324 38.3766 59.4197 38.3513 59.4071 38.3261C59.3884 38.2698 59.3696 38.2132 59.3696 38.1507C59.3692 38.0832 59.3822 38.0162 59.4079 37.9537C59.4336 37.8912 59.4714 37.8344 59.5191 37.7866C59.5669 37.7388 59.6236 37.7009 59.6861 37.6751C59.7486 37.6494 59.8156 37.6363 59.8831 37.6366ZM53.6582 39.6677C53.6772 39.5485 53.7382 39.44 53.8302 39.3619C53.9222 39.2837 54.0391 39.241 54.1597 39.2415C54.4419 39.2415 54.6739 39.4673 54.6739 39.7556C54.6739 39.9876 54.5173 40.1883 54.2979 40.2446C54.2531 40.2574 54.2067 40.2637 54.16 40.2633C54.0911 40.2633 54.0222 40.2507 53.9656 40.2193C53.9009 40.1939 53.8423 40.1551 53.7936 40.1054C53.745 40.0557 53.7074 39.9963 53.6834 39.931C53.6578 39.8762 53.6449 39.8162 53.6459 39.7556C53.6459 39.724 53.6459 39.699 53.6582 39.6677Z" fill="#E8DA93"/>
</svg>
