<svg width="262" height="169" viewBox="0 0 262 169" fill="none" xmlns="http://www.w3.org/2000/svg">
<path fill-rule="evenodd" clip-rule="evenodd" d="M116.449 -158.2C140.403 -173.587 178.075 -182.929 200.13 -167.526C227.563 -148.368 214.187 -103.521 233.075 -76.7518C242.326 -63.6416 262.592 -62.8095 278.224 -56.8485C309.654 -44.8626 376.542 -56.0354 372.402 -23.6205C367.657 13.5367 290.374 -0.241652 266.996 31.0711C252.326 50.7193 286.462 74.8784 281.591 98.0132C276.186 123.681 266.236 166.24 238.664 165.618C202.902 164.811 203.51 95.1627 167.673 95.443C128.018 95.7532 113.112 170.698 73.9134 166.907C43.6719 163.982 69.6467 109.605 56.0768 84.6496C44.287 62.9682 -0.134561 59.0886 1.72794 34.1577C3.7719 6.79778 49.6551 -0.682916 64.277 -25.1163C75.3838 -43.6758 66.1173 -66.5906 73.8989 -86.4405C84.0344 -112.295 91.9928 -142.49 116.449 -158.2Z" stroke="#E8DA93" stroke-width="2"/>
</svg>
