<svg width="373" height="184" viewBox="0 0 373 184" fill="none" xmlns="http://www.w3.org/2000/svg">
<path fill-rule="evenodd" clip-rule="evenodd" d="M106.549 -104.459C131.986 -109.575 157.839 -84.4058 183.783 -87.304C210.051 -90.2384 225.88 -120.95 252.557 -120.77C282.203 -120.57 324.974 -115.304 336.012 -86.2773C348.802 -52.6448 294.71 -26.9519 301.52 7.9828C308.511 43.8453 376.738 58.0584 370.97 93.0598C365.747 124.758 312.048 109.277 282.982 120.485C262.85 128.247 245.173 138.621 226.285 148.846C196.013 165.234 166.916 194.339 134.291 177.17C100.383 159.326 137.21 119.097 112.551 88.9928C86.8908 57.6643 25.9131 74.0892 6.69212 38.5656C-10.2482 7.25704 14.6419 -30.0559 33.5126 -57.0843C50.517 -81.4396 77.1497 -98.5469 106.549 -104.459Z" stroke="#E8DA93" stroke-width="2"/>
</svg>
