<svg width="308" height="131" viewBox="0 0 308 131" fill="none" xmlns="http://www.w3.org/2000/svg">
<path fill-rule="evenodd" clip-rule="evenodd" d="M140.477 118.589C119.325 117.456 97.0955 127.676 78.3393 121.563C59.7193 115.495 64.4469 103.156 52.3086 92.8397C38.2674 80.9063 1.62508 89.7465 1.66603 56.3996C4.87888 34.4639 29.7227 32.1843 49.2686 22.2979C61.6383 16.0412 84.8132 16.9385 94.7471 9.31879C111.665 -3.65799 117.951 -23.4669 144.087 -29.1987C169.37 -34.7435 206.557 -31.8825 222.849 -18.775C241.171 -4.03448 219.567 13.211 235.393 28.9013C252.177 45.5427 303.392 31.2261 306.173 63.8383C311.322 88.4995 261.026 83.8956 241.56 96.4358C226.723 105.994 226.649 123.866 205.951 128.402C184.804 133.036 163.2 119.807 140.477 118.589Z" stroke="#E8DA93" stroke-width="2"/>
</svg>
