<svg width="463" height="225" viewBox="0 0 463 225" fill="none" xmlns="http://www.w3.org/2000/svg">
<path fill-rule="evenodd" clip-rule="evenodd" d="M244.333 -13.4938C289.705 -28.3434 314.846 -76.9411 364.128 -76.9999C407.361 -77.0516 458.254 -47.012 461.799 -13.7535C465.948 25.1685 404.71 48.5794 381.199 83.1601C370.132 99.4383 375.648 120.714 360.661 135.002C346.321 148.674 319.571 148.81 301.306 159.331C279.73 171.758 268.544 192.919 244.333 202.005C212.694 213.878 172.53 233.409 142.895 218.777C112.708 203.873 140.333 161.06 117.819 139.541C88.4685 111.486 2.21074 119.209 1.01338 83.1601C-0.166552 47.6361 76.97 46.181 114.018 25.0854C134.956 13.163 147.362 -6.81409 171.655 -14.006C194.667 -20.8187 221.641 -6.06722 244.333 -13.4938Z" stroke="#E8DA93" stroke-width="2"/>
</svg>
