<svg width="134" height="224" viewBox="0 0 134 224" fill="none" xmlns="http://www.w3.org/2000/svg">
<path fill-rule="evenodd" clip-rule="evenodd" d="M-71.8485 81.9896C-50.1408 62.1189 -57.7818 18.6787 -31.428 5.53874C-8.5496 -5.86843 24.3898 6.60863 40.5531 25.9461C57.379 46.0763 34.4621 81.7052 49.9374 102.883C68.5217 128.315 120.117 119.693 130.736 149.358C139.964 175.14 104.658 196.571 92.3335 221.323C78.9447 248.214 83.0418 290.627 54.9395 301.593C25.1691 313.21 -1.37378 272.418 -33.1223 270.28C-61.2916 268.382 -88.872 302.201 -114.258 290.196C-139.074 278.46 -137.507 242.186 -146.851 216.499C-154.695 194.938 -168.097 174.061 -164.81 151.236C-161.624 129.115 -147.464 108.672 -129.38 95.2018C-113.309 83.231 -86.6226 95.5135 -71.8485 81.9896Z" stroke="#E8DA93" stroke-width="2"/>
</svg>
